<?xml version="1.0" encoding="UTF-8" standalone="no"?>
<!-- Created by Vectric (http://www.vectric.com/) -->

<svg
   width="70.00000000mm"
   height="30.00000000mm"
   viewBox="0.00000000 -30.00000000 70.00000000 30.00000000"
   id="svg2"
   version="1.1"
   sodipodi:docname="llaverito carlitos_corte.svg"
   inkscape:version="1.4.2 (f4327f4, 2025-05-13)"
   xmlns:inkscape="http://www.inkscape.org/namespaces/inkscape"
   xmlns:sodipodi="http://sodipodi.sourceforge.net/DTD/sodipodi-0.dtd"
   xmlns="http://www.w3.org/2000/svg"
   xmlns:svg="http://www.w3.org/2000/svg">
  <defs
     id="defs47" />
  <sodipodi:namedview
     id="namedview47"
     pagecolor="#ffffff"
     bordercolor="#000000"
     borderopacity="0.25"
     inkscape:showpageshadow="2"
     inkscape:pageopacity="0.0"
     inkscape:pagecheckerboard="0"
     inkscape:deskcolor="#d1d1d1"
     inkscape:document-units="mm"
     inkscape:zoom="6.7128571"
     inkscape:cx="132.28346"
     inkscape:cy="56.682273"
     inkscape:window-width="1920"
     inkscape:window-height="1009"
     inkscape:window-x="3512"
     inkscape:window-y="-8"
     inkscape:window-maximized="1"
     inkscape:current-layer="1ad9405a-62af-497b-a076-f7a37adcbcb2" />
  <g
     inkscape:groupmode="layer"
     id="1ad9405a-62af-497b-a076-f7a37adcbcb2"
     inkscape:label="Capa 1"
     style="stroke:#000000;">
    <path
       style="fill:none;stroke-width:0.280000;stroke-linecap:round;stroke-linejoin:round;stroke-opacity:1;stroke:#000000;"
       d="M 14.387412,-0.124866 L 14.828690,-0.089118 L 56.680441,-0.078770 L 57.098494,-0.119541 C 59.920590,-0.394771 62.760216,-1.587774 64.886995,-3.391699 C 66.140546,-4.454956 67.002113,-5.487189 67.851522,-6.943462 C 69.064848,-9.023656 69.720354,-11.192850 69.945869,-13.874057 L 70.000000,-14.517632 L 69.948303,-16.826336 L 69.755673,-18.284465 L 69.706859,-18.527486 C 69.330472,-20.401340 68.776895,-21.882267 67.874870,-23.428420 C 66.625523,-25.569911 64.953310,-27.145339 62.629544,-28.370152 L 62.261403,-28.564193 L 61.561187,-28.858783 C 60.027657,-29.503959 58.430922,-29.893596 56.843017,-30.010117 L 56.215937,-30.056132 L 14.039035,-30.029199 L 13.551306,-29.956211 C 11.806194,-29.695059 10.546432,-29.352402 9.063076,-28.735406 C 4.681144,-26.912760 1.689321,-23.423128 0.502346,-18.750256 C 0.425954,-18.449517 0.307844,-17.857152 0.239879,-17.433890 L 0.116305,-16.664322 L 0.069484,-14.181213 L 0.123648,-13.640610 C 0.409099,-10.791507 1.404813,-8.227705 3.078581,-6.032131 C 4.271632,-4.467140 5.546599,-3.352745 7.326961,-2.318800 C 9.391206,-1.119991 11.961149,-0.321418 14.387412,-0.124866 "
       id="path2" />
  </g>
</svg>
