<?xml version="1.0" encoding="UTF-8"?>
<!-- Created by Vectric (http://www.vectric.com/) -->
<svg width="41.00000000mm" height="41.00000000mm" viewBox="0.00000000 -41.00000000 41.00000000 41.00000000" id="svg2" version="1.1" xmlns="http://www.w3.org/2000/svg" xmlns:xlink="http://www.w3.org/1999/xlink" xmlns:inkscape="http://www.inkscape.org/namespaces/inkscape">
    <g inkscape:groupmode="layer" id="7e3f1802-e48d-4015-9605-52167f8c8b71" inkscape:label="Capa 1" style="stroke:#000000;">
        <path style="fill:none;stroke-width:0.280000;stroke-linecap:round;stroke-linejoin:round;stroke-opacity:1;stroke:#000000;" d="M 20.345188,-40.540152 A 20.000000,20.000000 0 0,0 0.345188,-20.540152 A 20.000000,20.000000 0 0,0 20.345188,-0.540152 A 20.000000,20.000000 0 0,0 40.345188,-20.540152 A 20.000000,20.000000 0 0,0 20.345188,-40.540152 "/>
        <path style="fill:none;stroke-width:0.280000;stroke-linecap:round;stroke-linejoin:round;stroke-opacity:1;stroke:#000000;" d="M 20.346073,-35.288696 A 2.500000,2.500000 0 0,0 17.846073,-32.788696 A 2.500000,2.500000 0 0,0 20.346073,-30.288696 A 2.500000,2.500000 0 0,0 22.846073,-32.788696 A 2.500000,2.500000 0 0,0 20.346073,-35.288696 "/>
    </g>
</svg>
