<?xml version="1.0" encoding="UTF-8"?>
<!-- Created by Vectric (http://www.vectric.com/) -->
<svg width="31.00000000mm" height="31.00000000mm" viewBox="0.00000000 -31.00000000 31.00000000 31.00000000" id="svg2" version="1.1" xmlns="http://www.w3.org/2000/svg" xmlns:xlink="http://www.w3.org/1999/xlink" xmlns:inkscape="http://www.inkscape.org/namespaces/inkscape">
    <g inkscape:groupmode="layer" id="7e3f1802-e48d-4015-9605-52167f8c8b71" inkscape:label="Capa 1" style="stroke:#000000;">
        <path style="fill:none;stroke-width:0.280000;stroke-linecap:round;stroke-linejoin:round;stroke-opacity:1;stroke:#000000;" d="M 15.447827,-30.734749 A 15.000000,15.000000 0 0,0 0.447827,-15.734749 A 15.000000,15.000000 0 0,0 15.447827,-0.734749 A 15.000000,15.000000 0 0,0 30.447827,-15.734749 A 15.000000,15.000000 0 0,0 15.447827,-30.734749 "/>
        <path style="fill:none;stroke-width:0.280000;stroke-linecap:round;stroke-linejoin:round;stroke-opacity:1;stroke:#000000;" d="M 15.461593,-27.209520 A 2.500000,2.500000 0 0,0 12.961593,-24.709520 A 2.500000,2.500000 0 0,0 15.461593,-22.209520 A 2.500000,2.500000 0 0,0 17.961593,-24.709520 A 2.500000,2.500000 0 0,0 15.461593,-27.209520 "/>
    </g>
</svg>
