<?xml version="1.0" encoding="UTF-8"?>
<!-- Created by Vectric (http://www.vectric.com/) -->
<svg width="35.00000000mm" height="35.00000000mm" viewBox="0.00000000 -35.00000000 35.00000000 35.00000000" id="svg2" version="1.1" xmlns="http://www.w3.org/2000/svg" xmlns:xlink="http://www.w3.org/1999/xlink" xmlns:inkscape="http://www.inkscape.org/namespaces/inkscape">
    <g inkscape:groupmode="layer" id="d8b9d777-f671-47b0-a326-582c40570768" inkscape:label="Capa 1" style="stroke:#000000;">
        <path style="fill:none;stroke-width:0.280000;stroke-linecap:round;stroke-linejoin:round;stroke-opacity:1;stroke:#000000;" d="M 150.000000,156.500000 A 0.500000,0.500000 0 0,0 149.500000,157.000000 A 0.500000,0.500000 0 0,0 150.000000,157.500000 A 0.500000,0.500000 0 0,0 150.500000,157.000000 A 0.500000,0.500000 0 0,0 150.000000,156.500000 "/>
        <path style="fill:none;stroke-width:0.280000;stroke-linecap:round;stroke-linejoin:round;stroke-opacity:1;stroke:#000000;" d="M 150.000000,156.500000 A 0.500000,0.500000 0 0,0 149.500000,157.000000 A 0.500000,0.500000 0 0,0 150.000000,157.500000 A 0.500000,0.500000 0 0,0 150.500000,157.000000 A 0.500000,0.500000 0 0,0 150.000000,156.500000 "/>
        <path style="fill:none;stroke-width:0.280000;stroke-linecap:round;stroke-linejoin:round;stroke-opacity:1;stroke:#000000;" d="M 27.777078,-13.132155 L 29.329679,-13.338237 L 32.032356,-13.527377 L 32.468926,-13.642396 L 32.597102,-13.923713 L 32.467546,-14.208059 L 32.167530,-14.283358 L 31.179883,-14.216171 C 30.205609,-14.149893 29.020211,-14.001424 28.122100,-13.833188 C 27.428700,-13.703298 27.418066,-13.700246 27.321069,-13.603248 L 27.230792,-13.512972 L 27.230792,-13.237714 L 27.453246,-13.118660 L 27.777078,-13.132155 "/>
        <path style="fill:none;stroke-width:0.280000;stroke-linecap:round;stroke-linejoin:round;stroke-opacity:1;stroke:#000000;" d="M 7.546681,-13.118660 L 7.747383,-13.340433 L 7.671724,-13.578812 L 7.441476,-13.702037 L 6.712314,-13.842570 C 5.779019,-14.022445 4.354257,-14.199655 3.454739,-14.247743 L 2.750809,-14.285374 L 2.449990,-14.209874 L 2.321884,-13.970505 L 2.390525,-13.697017 L 2.619087,-13.574694 L 5.005588,-13.402574 L 5.724385,-13.318354 C 6.119723,-13.272032 6.598442,-13.208302 6.788205,-13.176730 C 6.977967,-13.145158 7.226254,-13.119176 7.339954,-13.118993 L 7.546681,-13.118660 "/>
        <path style="fill:none;stroke-width:0.280000;stroke-linecap:round;stroke-linejoin:round;stroke-opacity:1;stroke:#000000;" d="M 31.640757,-11.163532 L 31.831093,-11.373851 L 31.830213,-11.484331 C 31.829075,-11.627108 31.774421,-11.705782 31.619869,-11.787126 L 31.494900,-11.852899 L 30.498545,-12.052624 C 29.385664,-12.275707 28.394379,-12.416379 27.573498,-12.467715 L 27.024896,-12.502023 L 26.828266,-12.305393 L 26.828266,-12.101417 L 27.045812,-11.904541 L 27.625431,-11.823200 C 28.375334,-11.717963 29.337248,-11.552305 30.451003,-11.336588 L 31.342311,-11.163955 L 31.640757,-11.163532 "/>
        <path style="fill:none;stroke-width:0.280000;stroke-linecap:round;stroke-linejoin:round;stroke-opacity:1;stroke:#000000;" d="M 30.778201,-8.978389 L 30.968537,-9.188708 L 30.968537,-9.420595 L 30.867905,-9.509377 C 30.812558,-9.558207 30.579231,-9.692146 30.349402,-9.807019 L 29.931531,-10.015879 L 28.940560,-10.438115 C 28.395526,-10.670345 27.658601,-10.967382 27.302949,-11.098197 L 26.656309,-11.336044 L 26.386060,-11.336044 L 26.177477,-11.105561 L 26.301098,-10.834243 L 27.547063,-10.306563 L 30.408838,-8.978389 L 30.778201,-8.978389 "/>
        <path style="fill:none;stroke-width:0.280000;stroke-linecap:round;stroke-linejoin:round;stroke-opacity:1;stroke:#000000;" d="M 3.740505,-11.176375 L 4.890580,-11.396956 C 5.523122,-11.518276 6.478996,-11.684488 7.014746,-11.766316 L 7.988836,-11.915095 L 8.139543,-12.040171 L 8.139543,-12.295783 L 7.912570,-12.501191 L 7.379139,-12.460521 C 6.403211,-12.386115 5.515902,-12.257512 4.143032,-11.991495 L 3.395483,-11.846644 L 3.136716,-11.678415 L 3.136716,-11.344258 L 3.317442,-11.163532 L 3.740505,-11.176375 "/>
        <path style="fill:none;stroke-width:0.280000;stroke-linecap:round;stroke-linejoin:round;stroke-opacity:1;stroke:#000000;" d="M 30.540508,-21.983474 L 30.986962,-21.446422 L 31.033549,-21.529669 C 31.238756,-21.896354 31.620160,-23.267904 31.748834,-24.101879 L 31.841993,-24.705668 L 31.853493,-26.488285 L 31.705217,-27.487483 L 31.555061,-27.692834 L 30.988656,-27.564747 C 29.670224,-27.266598 28.338962,-26.615431 27.157067,-25.690583 L 26.684506,-25.320798 L 26.426044,-25.043603 L 27.029529,-24.896655 L 28.179604,-24.340237 L 29.121959,-23.581415 L 29.608007,-23.050970 C 29.875333,-22.759225 30.294959,-22.278852 30.540508,-21.983474 "/>
        <path style="fill:none;stroke-width:0.280000;stroke-linecap:round;stroke-linejoin:round;stroke-opacity:1;stroke:#000000;" d="M 14.551212,-1.837625 L 17.713919,-1.753578 L 18.303333,-1.771998 C 21.713853,-1.878585 24.537788,-2.372257 27.159958,-3.320288 L 27.892085,-3.584985 L 29.617198,-4.424958 L 30.251990,-4.847177 C 31.940547,-5.970288 33.098781,-7.209250 33.841968,-8.687376 L 34.080730,-9.162250 L 34.274911,-9.745989 C 34.512352,-10.459773 34.628315,-11.044179 34.704597,-11.911435 L 34.762793,-12.573082 L 34.645050,-14.182480 L 34.528102,-14.836091 C 34.325133,-15.970468 34.024198,-16.846951 33.436062,-18.016695 L 33.211183,-18.463957 L 33.211183,-19.211861 L 33.891443,-21.255443 L 34.038292,-21.916736 C 34.119059,-22.280447 34.227802,-22.927364 34.279942,-23.354330 L 34.374742,-24.130631 L 34.316328,-26.660796 L 34.194046,-27.347960 C 34.040074,-28.213205 33.881184,-28.753955 33.655680,-29.180185 L 33.478842,-29.514431 L 32.918102,-30.018584 L 32.288239,-30.254246 L 31.514822,-30.323498 L 30.968537,-30.228952 C 29.671849,-30.004535 27.913200,-29.404913 25.744322,-28.447723 L 24.746634,-28.007414 L 24.180139,-27.723134 C 23.868567,-27.566779 23.389128,-27.345914 23.114719,-27.232322 L 22.615794,-27.025792 L 22.366194,-27.088437 L 22.123208,-27.523353 L 21.970641,-28.098390 C 21.625838,-29.397973 21.368017,-30.026393 20.871181,-30.778236 L 20.620269,-31.157932 L 19.783952,-31.951142 L 18.965105,-32.436235 L 18.058942,-32.735361 L 17.023874,-32.796377 L 16.161318,-32.615523 L 15.224999,-32.144253 L 14.466343,-31.518478 L 14.145293,-31.131021 C 13.760501,-30.666638 13.472058,-30.167049 13.207782,-29.507232 L 13.012010,-29.018450 L 12.572287,-27.235834 L 12.273401,-26.977067 L 12.059120,-26.977067 L 9.605889,-28.198600 L 8.795189,-28.559193 C 8.349304,-28.757520 7.534188,-29.088285 6.983820,-29.294227 L 5.983152,-29.668668 L 5.235603,-29.873313 C 4.824451,-29.985867 4.255164,-30.121759 3.970520,-30.175293 L 3.452986,-30.272629 L 2.245407,-30.279564 L 1.761461,-30.136643 L 1.277311,-29.765999 L 0.889158,-29.057074 L 0.750777,-28.491477 C 0.674667,-28.180398 0.566719,-27.628297 0.510891,-27.264586 L 0.409387,-26.603292 L 0.411880,-23.785608 L 0.544037,-23.010318 C 0.701760,-22.085047 0.972605,-20.965683 1.295625,-19.904104 L 1.531841,-19.127803 L 1.596427,-18.610269 L 1.275941,-17.796598 C 0.714292,-16.370645 0.401326,-15.192616 0.256140,-13.957982 L 0.189167,-13.388462 L 0.250413,-11.652314 L 0.344563,-11.134780 C 0.460499,-10.497490 0.610357,-9.970511 0.868838,-9.291158 L 1.067081,-8.770122 L 1.747519,-7.627051 L 2.118981,-7.167021 C 4.352075,-4.401487 8.116740,-2.676325 13.429889,-1.983784 L 14.551212,-1.837625 "/>
        <path style="fill:none;stroke-width:0.280000;stroke-linecap:round;stroke-linejoin:round;stroke-opacity:1;stroke:#000000;" d="M 11.984015,-16.798078 A 0.353303,0.353303 0 0,0 11.630711,-16.444775 A 0.353303,0.353303 0 0,0 11.984015,-16.091472 A 0.353303,0.353303 0 0,0 12.337318,-16.444775 A 0.353303,0.353303 0 0,0 11.984015,-16.798078 "/>
        <path style="fill:none;stroke-width:0.280000;stroke-linecap:round;stroke-linejoin:round;stroke-opacity:1;stroke:#000000;" d="M 25.924629,-16.813657 A 0.353303,0.353303 0 0,0 25.571326,-16.460354 A 0.353303,0.353303 0 0,0 25.924629,-16.107051 A 0.353303,0.353303 0 0,0 26.277932,-16.460354 A 0.353303,0.353303 0 0,0 25.924629,-16.813657 "/>
        <path style="fill:none;stroke-width:0.280000;stroke-linecap:round;stroke-linejoin:round;stroke-opacity:1;stroke:#000000;" d="M 10.848112,-18.622652 C 10.312909,-18.622652 9.879041,-18.188784 9.879041,-17.653581 C 9.879041,-17.118378 10.312909,-16.684511 10.848112,-16.684511 C 11.383315,-16.684511 11.817183,-17.118378 11.817183,-17.653581 C 11.817183,-18.188784 11.383315,-18.622652 10.848112,-18.622652 "/>
        <path style="fill:none;stroke-width:0.280000;stroke-linecap:round;stroke-linejoin:round;stroke-opacity:1;stroke:#000000;" d="M 24.929926,-18.834347 C 24.414070,-18.834347 23.995887,-18.416164 23.995887,-17.900308 C 23.995887,-17.384453 24.414070,-16.966270 24.929926,-16.966270 C 25.445781,-16.966270 25.863964,-17.384453 25.863964,-17.900308 C 25.863964,-18.416164 25.445781,-18.834347 24.929926,-18.834347 "/>
        <path style="fill:none;stroke-width:0.280000;stroke-linecap:round;stroke-linejoin:round;stroke-opacity:1;stroke:#000000;" d="M 10.415145,-19.611284 C 8.844141,-19.611284 7.570590,-18.337734 7.570590,-16.766729 C 7.570590,-15.195725 8.844141,-13.922174 10.415145,-13.922174 C 11.986150,-13.922174 13.259700,-15.195725 13.259700,-16.766729 C 13.259700,-18.337734 11.986150,-19.611284 10.415145,-19.611284 "/>
        <path style="fill:none;stroke-width:0.280000;stroke-linecap:round;stroke-linejoin:round;stroke-opacity:1;stroke:#000000;" d="M 24.196291,-19.611284 C 22.625287,-19.611284 21.351736,-18.337734 21.351736,-16.766729 C 21.351736,-15.195725 22.625287,-13.922174 24.196291,-13.922174 C 25.767296,-13.922174 27.040846,-15.195725 27.040846,-16.766729 C 27.040846,-18.337734 25.767296,-19.611284 24.196291,-19.611284 "/>
        <path style="fill:none;stroke-width:0.280000;stroke-linecap:round;stroke-linejoin:round;stroke-opacity:1;stroke:#000000;" d="M 15.704289,-9.525158 A 4.106228,4.106228 0 0,0 16.948859,-8.693735 A 0.987100,0.987100 0 0,0 17.030673,-8.662813 A 0.084993,0.084993 0 0,0 17.046160,-8.659293 A 1.916209,1.916209 0 0,0 18.686819,-9.242931 A 0.221607,0.221607 0 0,0 18.676782,-9.557377 A 0.793244,0.793244 0 0,0 18.224871,-9.765055 A 1.488840,1.488840 0 0,1 17.575733,-9.998884 A 0.800474,0.800474 0 0,0 16.712156,-10.007356 A 4.173468,4.173468 0 0,1 15.710513,-9.550770 A 0.015309,0.015309 0 0,0 15.704289,-9.525158 "/>
        <path style="fill:none;stroke-width:0.280000;stroke-linecap:round;stroke-linejoin:round;stroke-opacity:1;stroke:#000000;" d="M 4.430550,-8.926145 L 4.718069,-9.057831 L 8.110791,-10.628974 L 8.662501,-10.836206 L 8.717293,-10.938585 C 8.793278,-11.080565 8.786261,-11.141140 8.681721,-11.245680 L 8.591358,-11.336044 L 8.456194,-11.336044 C 8.381854,-11.336044 8.105528,-11.262216 7.842136,-11.171983 L 7.363242,-11.007922 L 6.471934,-10.630309 C 5.981714,-10.422621 5.270105,-10.106323 4.890580,-9.927424 L 4.200535,-9.602152 L 3.999272,-9.420595 L 3.999272,-9.107479 L 4.071473,-9.047557 C 4.111184,-9.014600 4.208222,-8.973800 4.287113,-8.956890 L 4.430550,-8.926145 "/>
        <path style="fill:none;stroke-width:0.280000;stroke-linecap:round;stroke-linejoin:round;stroke-opacity:1;stroke:#000000;" d="M 3.724094,-21.562857 A 0.175663,0.175663 0 0,0 4.064727,-21.531174 A 6.576443,6.576443 0 0,1 6.602458,-24.201542 A 4.740315,4.740315 0 0,1 8.322088,-24.990402 A 11.385644,11.385644 0 0,0 3.791521,-27.633980 A 0.598304,0.598304 0 0,0 3.005533,-27.178330 A 7.174064,7.174064 0 0,0 2.945485,-24.944053 A 17.617273,17.617273 0 0,0 3.724094,-21.562857 "/>
        <path style="fill:none;stroke-width:0.280000;stroke-linecap:round;stroke-linejoin:round;stroke-opacity:1;stroke:#000000;" d="M 2.871503,-21.327246 A 1.058921,1.058921 0 0,0 4.866981,-21.159502 A 5.693185,5.693185 0 0,1 7.046672,-23.438116 A 0.883258,0.883258 0 0,0 7.123541,-23.488368 A 3.857057,3.857057 0 0,1 8.522754,-24.130241 A 0.883258,0.883258 0 0,0 8.930991,-25.630231 A 12.268902,12.268902 0 0,0 4.062732,-28.474683 A 1.481562,1.481562 0 0,0 2.137069,-27.339310 A 8.057322,8.057322 0 0,0 2.069521,-24.830775 A 18.500532,18.500532 0 0,0 2.871503,-21.327246 "/>
        <path style="fill:none;stroke-width:0.280000;stroke-linecap:round;stroke-linejoin:round;stroke-opacity:1;stroke:#000000;" d="M 32.725233,-24.699970 L 32.736733,-26.482587 A 0.883258,0.883258 0 0,0 32.727184,-26.617937 L 32.578907,-27.617135 A 0.883258,0.883258 0 0,0 32.418199,-28.008828 L 32.268043,-28.214179 A 0.883258,0.883258 0 0,0 31.360241,-28.554338 L 30.793836,-28.426251 A 0.883258,0.883258 0 0,0 30.767082,-28.419762 L 30.272386,-28.291563 A 0.883258,0.883258 0 0,0 30.221241,-28.276649 L 29.727243,-28.116285 A 0.883258,0.883258 0 0,0 29.679099,-28.099101 L 29.187699,-27.907501 A 0.883258,0.883258 0 0,0 29.142262,-27.888306 L 28.655361,-27.666399 A 0.883258,0.883258 0 0,0 28.612343,-27.645367 L 28.131843,-27.394084 A 0.883258,0.883258 0 0,0 28.090983,-27.371318 L 27.618783,-27.091588 A 0.883258,0.883258 0 0,0 27.579846,-27.067131 L 27.117848,-26.759884 A 0.883258,0.883258 0 0,0 27.080635,-26.733729 L 26.630739,-26.399894 A 0.883258,0.883258 0 0,0 26.612750,-26.386185 L 26.140189,-26.016400 A 0.883258,0.883258 0 0,0 26.038502,-25.923145 L 25.780040,-25.645951 A 0.749689,0.749689 0 0,0 26.082122,-24.387732 L 26.729356,-24.060681 L 27.815478,-23.499427 L 28.515917,-22.935405 L 28.952655,-22.458774 L 29.417156,-21.937517 L 29.865376,-21.413929 L 30.307747,-20.881788 A 0.883258,0.883258 0 0,0 31.757732,-21.015077 L 31.804319,-21.098325 A 0.883258,0.883258 0 0,0 31.834569,-21.157498 L 31.918943,-21.339095 A 0.883258,0.883258 0 0,0 31.945766,-21.403337 L 32.041632,-21.661065 A 0.883258,0.883258 0 0,0 32.058175,-21.709847 L 32.264277,-22.381393 A 0.883258,0.883258 0 0,0 32.276254,-22.424237 L 32.468006,-23.183400 A 0.883258,0.883258 0 0,0 32.478511,-23.230335 L 32.615701,-23.932511 A 0.883258,0.883258 0 0,0 32.621763,-23.967194 L 32.714922,-24.570984 A 0.883258,0.883258 0 0,0 32.725233,-24.699970 "/>
        <path style="fill:none;stroke-width:0.280000;stroke-linecap:round;stroke-linejoin:round;stroke-opacity:1;stroke:#000000;" d="M 17.358894,-30.699259 A 1.673299,1.673299 0 0,0 15.685595,-29.025960 A 1.673299,1.673299 0 0,0 17.358894,-27.352662 A 1.673299,1.673299 0 0,0 19.032193,-29.025960 A 1.673299,1.673299 0 0,0 17.358894,-30.699259 "/>
        <path style="fill:none;stroke-width:0.280000;stroke-linecap:round;stroke-linejoin:round;stroke-opacity:1;stroke:#000000;" d="M 18.414437,-8.156552 A 1.437570,1.437570 0 0,0 19.133243,-8.648874 A 14.639355,14.639355 0 0,1 20.326616,-9.796156 A 4.798362,4.798362 0 0,0 21.314028,-10.786769 A 0.378125,0.378125 0 0,0 21.218984,-11.308609 A 0.509216,0.509216 0 0,0 20.494809,-11.096212 A 1.463701,1.463701 0 0,1 17.708631,-11.957683 A 0.676582,0.676582 0 0,1 18.451498,-12.486421 A 0.457614,0.457614 0 0,0 18.639046,-13.378744 A 4.048411,4.048411 0 0,0 16.175906,-13.340203 A 0.433757,0.433757 0 0,0 16.133219,-12.534984 A 1.954184,1.954184 0 0,1 16.932699,-11.858971 A 0.545968,0.545968 0 0,1 16.969314,-11.306784 A 1.604334,1.604334 0 0,1 14.152588,-11.213314 A 0.363219,0.363219 0 0,0 13.478526,-10.988820 A 3.396955,3.396955 0 0,0 14.047675,-10.159482 A 19.810101,19.810101 0 0,0 15.709218,-8.665547 A 2.013389,2.013389 0 0,0 16.856287,-8.001465 A 2.209667,2.209667 0 0,0 18.414437,-8.156552 "/>
    </g>
</svg>
