<?xml version="1.0" encoding="UTF-8"?>
<!-- Created by Vectric (http://www.vectric.com/) -->
<svg width="35.00000000mm" height="35.00000000mm" viewBox="0.00000000 -35.00000000 35.00000000 35.00000000" id="svg2" version="1.1" xmlns="http://www.w3.org/2000/svg" xmlns:xlink="http://www.w3.org/1999/xlink" xmlns:inkscape="http://www.inkscape.org/namespaces/inkscape">
    <g inkscape:groupmode="layer" id="d8b9d777-f671-47b0-a326-582c40570768" inkscape:label="Capa 1" style="stroke:#000000;">
        <path style="fill:none;stroke-width:0.280000;stroke-linecap:round;stroke-linejoin:round;stroke-opacity:1;stroke:#000000;" d="M 150.000000,156.500000 A 0.500000,0.500000 0 0,0 149.500000,157.000000 A 0.500000,0.500000 0 0,0 150.000000,157.500000 A 0.500000,0.500000 0 0,0 150.500000,157.000000 A 0.500000,0.500000 0 0,0 150.000000,156.500000 "/>
        <path style="fill:none;stroke-width:0.280000;stroke-linecap:round;stroke-linejoin:round;stroke-opacity:1;stroke:#000000;" d="M 150.000000,156.500000 A 0.500000,0.500000 0 0,0 149.500000,157.000000 A 0.500000,0.500000 0 0,0 150.000000,157.500000 A 0.500000,0.500000 0 0,0 150.500000,157.000000 A 0.500000,0.500000 0 0,0 150.000000,156.500000 "/>
        <path style="fill:none;stroke-width:0.280000;stroke-linecap:round;stroke-linejoin:round;stroke-opacity:1;stroke:#000000;" d="M 14.551212,-1.837625 L 17.713919,-1.753578 L 18.303333,-1.771998 C 21.713853,-1.878585 24.537788,-2.372257 27.159958,-3.320288 L 27.892085,-3.584985 L 29.617198,-4.424958 L 30.251990,-4.847177 C 31.940547,-5.970288 33.098781,-7.209250 33.841968,-8.687376 L 34.080730,-9.162250 L 34.274911,-9.745989 C 34.512352,-10.459773 34.628315,-11.044179 34.704597,-11.911435 L 34.762793,-12.573082 L 34.645050,-14.182480 L 34.528102,-14.836091 C 34.325133,-15.970468 34.024198,-16.846951 33.436062,-18.016695 L 33.211183,-18.463957 L 33.211183,-19.211861 L 33.891443,-21.255443 L 34.038292,-21.916736 C 34.119059,-22.280447 34.227802,-22.927364 34.279942,-23.354330 L 34.374742,-24.130631 L 34.316328,-26.660796 L 34.194046,-27.347960 C 34.040074,-28.213205 33.881184,-28.753955 33.655680,-29.180185 L 33.478842,-29.514431 L 32.918102,-30.018584 L 32.288239,-30.254246 L 31.514822,-30.323498 L 30.968537,-30.228952 C 29.671849,-30.004535 27.913200,-29.404913 25.744322,-28.447723 L 24.746634,-28.007414 L 24.180139,-27.723134 C 23.868567,-27.566779 23.389128,-27.345914 23.114719,-27.232322 L 22.615794,-27.025792 L 22.366194,-27.088437 L 22.123208,-27.523353 L 21.970641,-28.098390 C 21.625838,-29.397973 21.368017,-30.026393 20.871181,-30.778236 L 20.620269,-31.157932 L 19.783952,-31.951142 L 18.965105,-32.436235 L 18.058942,-32.735361 L 17.023874,-32.796377 L 16.161318,-32.615523 L 15.224999,-32.144253 L 14.466343,-31.518478 L 14.145293,-31.131021 C 13.760501,-30.666638 13.472058,-30.167049 13.207782,-29.507232 L 13.012010,-29.018450 L 12.572287,-27.235834 L 12.273401,-26.977067 L 12.059120,-26.977067 L 9.605889,-28.198600 L 8.795189,-28.559193 C 8.349304,-28.757520 7.534188,-29.088285 6.983820,-29.294227 L 5.983152,-29.668668 L 5.235603,-29.873313 C 4.824451,-29.985867 4.255164,-30.121759 3.970520,-30.175293 L 3.452986,-30.272629 L 2.245407,-30.279564 L 1.761461,-30.136643 L 1.277311,-29.765999 L 0.889158,-29.057074 L 0.750777,-28.491477 C 0.674667,-28.180398 0.566719,-27.628297 0.510891,-27.264586 L 0.409387,-26.603292 L 0.411880,-23.785608 L 0.544037,-23.010318 C 0.701760,-22.085047 0.972605,-20.965683 1.295625,-19.904104 L 1.531841,-19.127803 L 1.596427,-18.610269 L 1.275941,-17.796598 C 0.714292,-16.370645 0.401326,-15.192616 0.256140,-13.957982 L 0.189167,-13.388462 L 0.250413,-11.652314 L 0.344563,-11.134780 C 0.460499,-10.497490 0.610357,-9.970511 0.868838,-9.291158 L 1.067081,-8.770122 L 1.747519,-7.627051 L 2.118981,-7.167021 C 4.352075,-4.401487 8.116740,-2.676325 13.429889,-1.983784 L 14.551212,-1.837625 "/>
        <path style="fill:none;stroke-width:0.280000;stroke-linecap:round;stroke-linejoin:round;stroke-opacity:1;stroke:#000000;" d="M 17.358894,-30.699259 A 1.673299,1.673299 0 0,0 15.685595,-29.025960 A 1.673299,1.673299 0 0,0 17.358894,-27.352662 A 1.673299,1.673299 0 0,0 19.032193,-29.025960 A 1.673299,1.673299 0 0,0 17.358894,-30.699259 "/>
    </g>
</svg>
