<?xml version="1.0" encoding="UTF-8"?>
<!-- Created by Vectric (http://www.vectric.com/) -->
<svg width="37.00000000mm" height="24.00000000mm" viewBox="0.00000000 -24.00000000 37.00000000 24.00000000" id="svg2" version="1.1" xmlns="http://www.w3.org/2000/svg" xmlns:xlink="http://www.w3.org/1999/xlink" xmlns:inkscape="http://www.inkscape.org/namespaces/inkscape">
    <g inkscape:groupmode="layer" id="d8b9d777-f671-47b0-a326-582c40570768" inkscape:label="Capa 1" style="stroke:#000000;">
        <path style="fill:none;stroke-width:0.280000;stroke-linecap:round;stroke-linejoin:round;stroke-opacity:1;stroke:#000000;" d="M 150.000000,167.500000 A 0.500000,0.500000 0 0,0 149.500000,168.000000 A 0.500000,0.500000 0 0,0 150.000000,168.500000 A 0.500000,0.500000 0 0,0 150.500000,168.000000 A 0.500000,0.500000 0 0,0 150.000000,167.500000 "/>
        <path style="fill:none;stroke-width:0.280000;stroke-linecap:round;stroke-linejoin:round;stroke-opacity:1;stroke:#000000;" d="M 150.000000,167.500000 A 0.500000,0.500000 0 0,0 149.500000,168.000000 A 0.500000,0.500000 0 0,0 150.000000,168.500000 A 0.500000,0.500000 0 0,0 150.500000,168.000000 A 0.500000,0.500000 0 0,0 150.000000,167.500000 "/>
        <path style="fill:none;stroke-width:0.280000;stroke-linecap:round;stroke-linejoin:round;stroke-opacity:1;stroke:#000000;" d="M 5.397780,-1.530421 L 5.600511,-1.504315 L 6.697840,-1.496689 L 7.379267,-1.586359 L 7.741048,-1.675257 C 8.995708,-1.983556 10.139308,-2.621489 10.971956,-3.477553 L 11.188025,-3.699697 L 11.388607,-3.757208 L 25.419163,-3.757208 L 25.587371,-3.693272 L 26.222021,-3.077316 L 26.508431,-2.864775 C 27.113809,-2.415533 27.627679,-2.146091 28.453003,-1.845160 L 28.724339,-1.746225 L 29.538346,-1.559996 L 30.228018,-1.488265 L 31.407547,-1.523061 L 31.844699,-1.614884 C 33.080899,-1.874545 34.022149,-2.365545 34.861143,-3.188402 L 35.149156,-3.470875 L 35.561019,-4.002249 L 35.738182,-4.320109 C 35.959602,-4.717373 36.092133,-5.017367 36.213356,-5.395698 L 36.307923,-5.690837 L 36.471080,-6.575320 L 36.471441,-7.991912 L 36.403426,-8.368665 C 36.290959,-8.991655 36.065824,-9.697610 35.831515,-10.162009 C 35.635313,-10.550882 35.227548,-11.172900 34.957117,-11.495848 L 34.824501,-11.654218 L 35.071052,-11.934238 L 35.579893,-12.693790 L 35.972136,-13.507576 L 36.106550,-13.914469 C 36.261521,-14.383591 36.349430,-14.771197 36.395093,-15.186707 L 36.427257,-15.479386 L 36.426979,-16.250338 L 36.310275,-17.033985 L 36.217391,-17.344098 C 35.842596,-18.595427 35.122014,-19.543639 33.985236,-20.281385 C 33.527178,-20.578655 33.063923,-20.786228 32.457079,-20.966113 L 32.149934,-21.057160 L 31.407547,-21.184323 L 30.382501,-21.214502 L 29.371057,-21.084628 L 29.002475,-20.983294 C 28.799755,-20.927561 28.498226,-20.833008 28.332410,-20.773177 L 28.030925,-20.664393 L 27.578699,-20.440824 C 26.951465,-20.130734 26.573168,-19.889359 26.076163,-19.482120 L 25.900157,-19.337903 L 25.558756,-19.165788 L 25.136678,-19.093422 L 23.076500,-19.060807 L 22.860624,-19.101295 L 22.772487,-19.271686 L 22.679879,-19.890878 L 22.574011,-20.248222 C 22.390707,-20.866938 22.086618,-21.492224 21.753558,-21.935286 C 21.358996,-22.460163 20.825203,-22.902860 20.222488,-23.205065 C 19.915560,-23.358961 19.773324,-23.410778 19.370834,-23.515325 L 19.088361,-23.588698 L 18.439122,-23.649907 L 17.681168,-23.588376 L 16.918929,-23.379526 L 16.255562,-23.048905 L 15.792504,-22.730491 L 15.183243,-22.145334 L 15.004583,-21.901518 C 14.541201,-21.269142 14.215007,-20.481045 14.059862,-19.619030 L 13.998928,-19.280472 L 13.906789,-19.102344 L 13.628173,-19.060574 L 11.690489,-19.092424 L 11.158323,-19.190117 L 11.042156,-19.249365 C 10.978264,-19.281952 10.847016,-19.374011 10.750493,-19.453941 C 10.259413,-19.860606 9.752667,-20.176454 9.076839,-20.497108 L 8.675648,-20.687457 L 8.328942,-20.808888 C 7.870030,-20.969617 7.441284,-21.073094 6.927041,-21.147231 L 6.504963,-21.208082 L 5.721104,-21.207914 L 5.449769,-21.177576 C 4.050080,-21.021080 3.007844,-20.571202 2.032726,-19.702618 L 1.811414,-19.505485 L 1.570761,-19.219152 C 1.262834,-18.852776 1.098503,-18.602100 0.881152,-18.167194 L 0.706452,-17.817631 L 0.598954,-17.475313 C 0.470625,-17.066660 0.416102,-16.809948 0.367744,-16.386709 L 0.331669,-16.070976 L 0.364553,-15.255710 L 0.488497,-14.552293 L 0.594549,-14.195706 C 0.714975,-13.790789 0.783088,-13.604092 0.928071,-13.281524 C 1.150879,-12.785808 1.548236,-12.127300 1.824113,-11.796587 L 1.943982,-11.652891 L 1.915122,-11.615746 C 1.899249,-11.595316 1.820758,-11.497222 1.740698,-11.397759 C 0.994979,-10.471312 0.476704,-9.225971 0.324138,-7.993964 L 0.279317,-7.632029 L 0.279840,-7.284516 C 0.282198,-5.715499 0.834451,-4.295942 1.843308,-3.265643 C 2.501196,-2.593773 3.238494,-2.134622 4.183536,-1.808269 C 4.431740,-1.722556 5.108741,-1.567643 5.397780,-1.530421 "/>
        <path style="fill:none;stroke-width:0.280000;stroke-linecap:round;stroke-linejoin:round;stroke-opacity:1;stroke:#000000;" d="M 18.363369,-21.635194 A 1.514781,1.514781 0 0,0 16.848588,-20.120413 A 1.514781,1.514781 0 0,0 18.363369,-18.605632 A 1.514781,1.514781 0 0,0 19.878150,-20.120413 A 1.514781,1.514781 0 0,0 18.363369,-21.635194 "/>
    </g>
</svg>
