<?xml version="1.0" encoding="UTF-8"?>
<!-- Created by Vectric (http://www.vectric.com/) -->
<svg width="40.00000000mm" height="40.00000000mm" viewBox="0.00000000 -40.00000000 40.00000000 40.00000000" id="svg2" version="1.1" xmlns="http://www.w3.org/2000/svg" xmlns:xlink="http://www.w3.org/1999/xlink" xmlns:inkscape="http://www.inkscape.org/namespaces/inkscape">
    <g inkscape:groupmode="layer" id="d8b9d777-f671-47b0-a326-582c40570768" inkscape:label="Capa 1" style="stroke:#000000;">
        <path style="fill:none;stroke-width:0.280000;stroke-linecap:round;stroke-linejoin:round;stroke-opacity:1;stroke:#000000;" d="M 150.000000,151.500000 A 0.500000,0.500000 0 0,0 149.500000,152.000000 A 0.500000,0.500000 0 0,0 150.000000,152.500000 A 0.500000,0.500000 0 0,0 150.500000,152.000000 A 0.500000,0.500000 0 0,0 150.000000,151.500000 "/>
        <path style="fill:none;stroke-width:0.280000;stroke-linecap:round;stroke-linejoin:round;stroke-opacity:1;stroke:#000000;" d="M 150.000000,151.500000 A 0.500000,0.500000 0 0,0 149.500000,152.000000 A 0.500000,0.500000 0 0,0 150.000000,152.500000 A 0.500000,0.500000 0 0,0 150.500000,152.000000 A 0.500000,0.500000 0 0,0 150.000000,151.500000 "/>
        <path style="fill:none;stroke-width:0.280000;stroke-linecap:round;stroke-linejoin:round;stroke-opacity:1;stroke:#000000;" d="M 19.376893,-35.023900 L 19.595718,-35.077881 C 19.716071,-35.107571 19.913985,-35.182594 20.035526,-35.244600 L 20.256509,-35.357337 L 20.681784,-35.828065 L 20.866406,-36.266498 L 20.871824,-36.994086 L 20.561674,-37.628010 L 20.038740,-38.088315 L 19.501470,-38.271381 L 18.887296,-38.271381 L 18.268988,-38.040043 L 17.784982,-37.544974 L 17.548900,-37.021961 L 17.546347,-36.260262 L 17.844726,-35.661494 L 18.055788,-35.476179 C 18.171872,-35.374256 18.372781,-35.244564 18.502252,-35.187973 L 18.737655,-35.085081 L 19.376893,-35.023900 "/>
        <path style="fill:none;stroke-width:0.280000;stroke-linecap:round;stroke-linejoin:round;stroke-opacity:1;stroke:#000000;" d="M 12.432443,-0.186199 L 12.635837,-0.160686 L 15.018452,-0.195507 L 16.150332,-0.491196 L 16.971849,-0.922890 L 17.477309,-1.500707 L 21.286477,-1.515193 L 21.868385,-0.899884 L 22.805533,-0.438707 L 23.851559,-0.199736 L 25.943611,-0.135482 L 27.280200,-0.331483 L 28.352739,-0.686395 L 29.102403,-1.178776 L 30.243940,-1.012894 L 31.812979,-1.070679 L 32.613859,-1.260020 L 32.894096,-1.402026 C 33.048227,-1.480130 33.261690,-1.620733 33.368459,-1.714478 L 33.562585,-1.884922 L 33.905030,-2.503106 L 33.905030,-3.549132 L 33.628627,-4.277481 L 32.878105,-5.088114 L 31.704338,-5.675722 L 31.366399,-5.769678 C 31.180532,-5.821353 31.028459,-5.881403 31.028459,-5.903121 C 31.028459,-5.924839 31.079629,-6.091336 31.142170,-6.273114 C 31.204711,-6.454892 31.322389,-6.900158 31.403676,-7.262594 L 31.551472,-7.921568 L 31.551472,-8.929443 L 31.367093,-9.825288 L 30.897347,-10.729752 L 30.223241,-11.339784 L 29.226970,-11.898998 L 29.218078,-13.195816 L 29.201270,-13.282985 C 29.192026,-13.330927 29.166160,-13.553208 29.143790,-13.776941 C 29.085192,-14.363013 28.840556,-15.526768 28.607036,-16.330330 L 28.405275,-17.024608 L 28.197927,-17.453769 L 28.308307,-17.651007 L 28.272919,-17.864139 C 28.253456,-17.981361 28.182268,-18.299892 28.114723,-18.571985 L 27.991915,-19.066700 L 28.304352,-19.502247 C 28.642224,-19.973253 28.996817,-20.619988 29.108199,-20.968369 C 29.146519,-21.088226 29.184824,-21.186291 29.193323,-21.186291 C 29.201822,-21.186291 29.363235,-21.132509 29.552020,-21.066774 L 29.895264,-20.947257 L 30.592615,-20.938312 L 31.089683,-21.142043 L 31.778101,-22.145148 L 32.149008,-22.522880 C 32.353007,-22.730632 32.799092,-23.158441 33.140309,-23.473565 L 33.760702,-24.046518 L 34.075813,-24.493662 C 34.249124,-24.739592 34.509440,-25.174755 34.654292,-25.460692 L 34.917660,-25.980577 L 35.181507,-26.968490 L 35.179869,-28.421304 L 35.072553,-28.769979 C 34.722831,-29.906253 33.945419,-30.813889 32.219766,-32.100637 L 31.638641,-32.533958 L 28.326226,-34.739296 L 26.931524,-35.420951 L 26.234174,-35.611392 L 24.258347,-35.627596 L 24.062836,-35.734054 C 23.801562,-35.876320 23.386714,-36.263788 23.237944,-36.504504 C 23.171709,-36.611674 23.017699,-36.932901 22.895700,-37.218341 L 22.673884,-37.737323 L 21.956630,-38.679547 L 21.538449,-38.974540 C 21.020468,-39.339935 20.813584,-39.447512 20.302583,-39.617175 L 19.899906,-39.750872 L 18.505205,-39.751160 L 18.070826,-39.615812 C 17.532508,-39.448078 17.214550,-39.286472 16.745702,-38.942303 L 16.380901,-38.674511 L 15.707365,-37.766113 L 15.546013,-37.364981 C 15.457270,-37.144358 15.317723,-36.814850 15.235908,-36.632740 L 15.087154,-36.301630 L 14.611664,-35.836215 L 14.040548,-35.584340 L 13.715924,-35.581057 C 13.537381,-35.579252 13.103643,-35.584730 12.752062,-35.593231 L 12.112824,-35.608687 L 11.737940,-35.481996 C 10.965988,-35.221117 10.127555,-34.723229 8.800409,-33.737597 L 8.277396,-33.349171 L 7.376651,-32.689576 C 5.105861,-31.026727 4.455626,-30.385875 3.946141,-29.308568 L 3.776255,-28.949346 L 3.583718,-28.083927 L 3.649185,-26.852265 L 3.892115,-26.003103 L 4.176158,-25.439771 C 4.332381,-25.129938 4.598012,-24.680309 4.766448,-24.440594 L 5.072697,-24.004750 L 7.002039,-22.087036 L 7.443151,-21.240502 L 7.870608,-20.958332 L 8.474605,-20.829312 L 8.840108,-20.922949 C 9.041135,-20.974450 9.263887,-21.054770 9.335113,-21.101439 C 9.406338,-21.148108 9.474470,-21.186291 9.486516,-21.186291 C 9.498562,-21.186291 9.541711,-21.075151 9.582401,-20.939313 C 9.623092,-20.803475 9.756135,-20.496205 9.878052,-20.256491 C 10.094291,-19.831323 10.200014,-19.668794 10.530964,-19.252772 L 10.692480,-19.049737 L 10.457501,-17.728595 L 10.471393,-17.379919 L 10.263771,-16.792737 C 10.024773,-16.116818 9.805962,-15.283456 9.670290,-14.532404 L 9.575811,-14.009391 L 9.510008,-11.941445 L 9.242377,-11.791471 C 9.095180,-11.708985 8.798028,-11.524125 8.582039,-11.380671 L 8.189331,-11.119845 L 7.942068,-10.844828 C 7.667877,-10.539862 7.496891,-10.231837 7.311602,-9.709063 L 7.188019,-9.360387 L 7.130348,-8.007980 L 7.259134,-7.406469 C 7.329967,-7.075638 7.462497,-6.600613 7.553647,-6.350858 L 7.719373,-5.896758 L 7.521932,-5.833146 L 6.456987,-5.432696 L 5.778556,-4.991316 L 5.218930,-4.388664 L 4.850536,-3.607245 L 4.809529,-2.735557 L 5.067821,-2.047696 L 5.568382,-1.561205 L 5.877329,-1.410052 C 6.047249,-1.326918 6.356045,-1.217779 6.563541,-1.167521 L 6.940807,-1.076143 L 8.199935,-1.003312 L 9.695233,-1.155772 L 10.105182,-0.843088 L 11.241136,-0.389376 L 11.735092,-0.300544 C 12.006769,-0.251687 12.320576,-0.200231 12.432443,-0.186199 "/>
    </g>
</svg>
