<?xml version="1.0" encoding="UTF-8"?>
<!-- Created by Vectric (http://www.vectric.com/) -->
<svg width="40.00000000mm" height="40.00000000mm" viewBox="0.00000000 -40.00000000 40.00000000 40.00000000" id="svg2" version="1.1" xmlns="http://www.w3.org/2000/svg" xmlns:xlink="http://www.w3.org/1999/xlink" xmlns:inkscape="http://www.inkscape.org/namespaces/inkscape">
    <g inkscape:groupmode="layer" id="d8b9d777-f671-47b0-a326-582c40570768" inkscape:label="Capa 1" style="stroke:#000000;">
        <path style="fill:none;stroke-width:0.280000;stroke-linecap:round;stroke-linejoin:round;stroke-opacity:1;stroke:#000000;" d="M 150.000000,151.500000 A 0.500000,0.500000 0 0,0 149.500000,152.000000 A 0.500000,0.500000 0 0,0 150.000000,152.500000 A 0.500000,0.500000 0 0,0 150.500000,152.000000 A 0.500000,0.500000 0 0,0 150.000000,151.500000 "/>
        <path style="fill:none;stroke-width:0.280000;stroke-linecap:round;stroke-linejoin:round;stroke-opacity:1;stroke:#000000;" d="M 150.000000,151.500000 A 0.500000,0.500000 0 0,0 149.500000,152.000000 A 0.500000,0.500000 0 0,0 150.000000,152.500000 A 0.500000,0.500000 0 0,0 150.500000,152.000000 A 0.500000,0.500000 0 0,0 150.000000,151.500000 "/>
        <path style="fill:none;stroke-width:0.280000;stroke-linecap:round;stroke-linejoin:round;stroke-opacity:1;stroke:#000000;" d="M 18.679542,-13.099099 L 19.435005,-13.018777 L 19.972602,-13.099355 L 20.557999,-13.395998 L 20.812625,-13.753587 L 20.915514,-14.532404 L 20.844972,-15.578430 L 17.672097,-15.578430 L 17.597859,-14.706742 L 17.709739,-13.937618 L 17.800294,-13.762505 C 17.912322,-13.545866 18.190065,-13.307489 18.468636,-13.188891 L 18.679542,-13.099099 "/>
        <path style="fill:none;stroke-width:0.280000;stroke-linecap:round;stroke-linejoin:round;stroke-opacity:1;stroke:#000000;" d="M 7.539198,-1.849711 L 7.476876,-2.980724 L 7.773319,-3.628241 L 8.019548,-3.806609 C 8.154974,-3.904711 8.285604,-3.984976 8.309835,-3.984976 L 8.353893,-3.984976 L 7.941173,-3.180559 L 7.941173,-2.558499 L 8.130361,-2.192650 L 8.472405,-1.949093 L 8.974746,-1.855853 L 9.342763,-1.951843 L 9.381534,-3.326299 L 9.868623,-4.308430 L 10.565273,-5.022594 L 10.424120,-5.115082 C 10.346485,-5.165949 10.119370,-5.249505 9.919419,-5.300760 L 9.555872,-5.393952 L 8.103058,-5.332017 L 7.698359,-5.211111 C 7.475774,-5.144612 7.109665,-5.002057 6.884783,-4.894323 L 6.475907,-4.698442 L 5.922000,-4.205932 L 5.604218,-3.665357 L 5.604218,-2.698437 L 5.848946,-2.470018 C 5.983547,-2.344388 6.114300,-2.241727 6.139509,-2.241883 L 6.185344,-2.242166 L 6.191025,-3.084232 L 6.264022,-3.298187 C 6.304171,-3.415862 6.415995,-3.611992 6.512519,-3.734031 L 6.688018,-3.955920 L 6.901582,-4.086376 C 7.205439,-4.271987 7.230660,-4.250701 7.038940,-3.970448 C 6.946013,-3.834610 6.822415,-3.631943 6.764277,-3.520076 L 6.658572,-3.316682 L 6.653178,-2.561219 L 6.871011,-2.116671 L 7.006294,-2.028030 C 7.080700,-1.979277 7.231042,-1.919212 7.340388,-1.894550 L 7.539198,-1.849711 "/>
        <path style="fill:none;stroke-width:0.280000;stroke-linecap:round;stroke-linejoin:round;stroke-opacity:1;stroke:#000000;" d="M 23.747879,-26.355218 L 23.876648,-26.375842 L 24.181475,-26.738109 L 24.111278,-27.089098 L 23.860356,-27.356192 L 23.352320,-27.356192 L 23.067040,-27.070912 L 23.067040,-26.671717 L 23.270434,-26.424789 L 23.444771,-26.379691 C 23.540657,-26.354887 23.677055,-26.343874 23.747879,-26.355218 "/>
        <path style="fill:none;stroke-width:0.280000;stroke-linecap:round;stroke-linejoin:round;stroke-opacity:1;stroke:#000000;" d="M 31.464303,-1.884189 C 31.528227,-1.904975 31.665095,-1.973133 31.768455,-2.035653 L 31.956382,-2.149324 L 32.132598,-2.520671 L 32.132598,-3.281372 L 31.678282,-4.159314 L 31.758137,-4.159314 C 31.802056,-4.159314 31.931427,-4.077276 32.045628,-3.977006 L 32.253265,-3.794698 L 32.562705,-3.266679 L 32.611715,-2.241600 L 32.669556,-2.241600 C 32.701368,-2.241600 32.826754,-2.340957 32.948190,-2.462393 L 33.168983,-2.683187 L 33.254892,-3.141118 L 33.121882,-3.775244 L 32.721629,-4.378069 L 31.866246,-4.950184 L 30.708840,-5.347047 L 28.849239,-5.350621 L 28.544148,-5.212712 C 28.376348,-5.136862 28.239057,-5.062303 28.239057,-5.047025 L 28.239057,-5.019248 L 28.993842,-4.204011 L 29.340177,-3.491020 L 29.462264,-2.702662 L 29.387029,-1.968327 L 29.524922,-1.931419 C 29.600763,-1.911120 29.783163,-1.894155 29.930255,-1.893718 L 30.197696,-1.892925 L 30.389812,-2.023678 C 30.495476,-2.095592 30.632012,-2.222072 30.693225,-2.304744 L 30.804521,-2.455056 L 30.869361,-2.938471 L 30.722259,-3.463867 L 30.391781,-3.984976 L 30.547195,-3.984976 L 31.073192,-3.521976 L 31.164290,-3.294300 C 31.214394,-3.169078 31.271652,-2.939833 31.291531,-2.784865 L 31.327674,-2.503106 L 31.220392,-1.834812 L 31.284235,-1.840605 C 31.319349,-1.843791 31.400380,-1.863404 31.464303,-1.884189 "/>
        <path style="fill:none;stroke-width:0.280000;stroke-linecap:round;stroke-linejoin:round;stroke-opacity:1;stroke:#000000;" d="M 14.159403,-24.908390 L 14.379213,-24.854203 L 15.017237,-24.917336 L 15.228007,-25.024863 C 15.343930,-25.084003 15.522006,-25.202422 15.623730,-25.288018 L 15.808685,-25.443647 L 15.951455,-25.725390 C 16.029978,-25.880348 16.121934,-26.136340 16.155802,-26.294262 L 16.217381,-26.581392 L 16.093199,-27.253153 L 15.972069,-27.488553 C 15.905448,-27.618023 15.771325,-27.807205 15.674018,-27.908956 L 15.497097,-28.093959 L 14.902226,-28.352944 L 14.181363,-28.348760 L 13.931613,-28.220257 C 13.794250,-28.149581 13.585414,-27.998733 13.467532,-27.885039 L 13.253201,-27.678323 L 12.985468,-27.084715 L 12.994457,-26.038689 L 13.092502,-25.819473 C 13.213022,-25.550006 13.559154,-25.159308 13.777304,-25.046498 C 13.866563,-25.000341 14.038507,-24.938192 14.159403,-24.908390 "/>
        <path style="fill:none;stroke-width:0.280000;stroke-linecap:round;stroke-linejoin:round;stroke-opacity:1;stroke:#000000;" d="M 19.376893,-35.023900 L 19.595718,-35.077881 C 19.716071,-35.107571 19.913985,-35.182594 20.035526,-35.244600 L 20.256509,-35.357337 L 20.681784,-35.828065 L 20.866406,-36.266498 L 20.871824,-36.994086 L 20.561674,-37.628010 L 20.038740,-38.088315 L 19.501470,-38.271381 L 18.887296,-38.271381 L 18.268988,-38.040043 L 17.784982,-37.544974 L 17.548900,-37.021961 L 17.546347,-36.260262 L 17.844726,-35.661494 L 18.055788,-35.476179 C 18.171872,-35.374256 18.372781,-35.244564 18.502252,-35.187973 L 18.737655,-35.085081 L 19.376893,-35.023900 "/>
        <path style="fill:none;stroke-width:0.280000;stroke-linecap:round;stroke-linejoin:round;stroke-opacity:1;stroke:#000000;" d="M 23.492064,-24.942857 L 24.084009,-24.793594 L 24.369798,-24.823783 C 24.526981,-24.840388 24.742183,-24.890156 24.848024,-24.934379 L 25.040462,-25.014784 L 25.536823,-25.525937 L 25.768474,-26.154914 L 25.753968,-26.968490 L 25.504075,-27.624334 L 24.938654,-28.153219 L 24.490797,-28.349916 L 23.735334,-28.355496 L 23.470875,-28.236979 C 23.325423,-28.171794 23.108000,-28.032051 22.987715,-27.926439 L 22.769013,-27.734416 L 22.457657,-27.142828 L 22.462429,-26.154914 L 22.616234,-25.858108 C 22.813535,-25.477365 23.018547,-25.235507 23.282006,-25.072681 L 23.492064,-24.942857 "/>
        <path style="fill:none;stroke-width:0.280000;stroke-linecap:round;stroke-linejoin:round;stroke-opacity:1;stroke:#000000;" d="M 15.134677,-26.314404 L 15.486169,-26.467860 L 15.557401,-26.624198 C 15.644351,-26.815031 15.648064,-26.978850 15.568798,-27.126961 L 15.508963,-27.238764 L 15.149614,-27.424591 L 14.761981,-27.351870 L 14.524495,-27.049955 L 14.524495,-26.653558 L 14.809775,-26.368279 L 14.894832,-26.368279 C 14.941614,-26.368279 15.014717,-26.356157 15.057283,-26.341341 L 15.134677,-26.314404 "/>
        <path style="fill:none;stroke-width:0.280000;stroke-linecap:round;stroke-linejoin:round;stroke-opacity:1;stroke:#000000;" d="M 19.783681,-16.946722 L 20.165453,-17.134887 L 20.678178,-17.705160 L 20.916875,-18.343136 L 20.916875,-18.801463 L 20.757066,-18.836845 C 20.415609,-18.912445 20.180470,-18.996442 19.934653,-19.130629 C 19.793954,-19.207434 19.705723,-19.305526 19.667433,-19.305526 C 19.395066,-19.305526 19.392644,-19.311133 19.118760,-19.311133 L 18.495685,-18.986941 L 17.836910,-18.795430 L 17.836910,-18.660393 C 17.836910,-18.586123 17.889332,-18.359161 17.953403,-18.156032 L 18.069896,-17.786707 L 18.466099,-17.250042 L 19.080094,-16.944075 L 19.783681,-16.946722 "/>
        <path style="fill:none;stroke-width:0.280000;stroke-linecap:round;stroke-linejoin:round;stroke-opacity:1;stroke:#000000;" d="M 16.384096,-4.734208 C 16.464001,-4.675737 16.548991,-4.627068 16.572962,-4.626056 L 16.616547,-4.624214 L 16.616547,-5.025671 C 16.616547,-5.246472 16.575568,-5.749872 16.525482,-6.144338 C 16.340350,-7.602416 16.092727,-8.537876 15.622740,-9.554688 L 15.398629,-10.039551 L 14.887443,-10.755089 L 14.517103,-11.073984 C 13.087229,-12.305231 12.042291,-13.764575 11.528334,-15.248051 L 11.340795,-15.789360 L 11.152011,-15.287868 L 10.855187,-13.893166 L 10.789964,-12.257518 L 10.857873,-11.681712 C 10.938807,-10.995460 11.145413,-10.073070 11.423384,-9.156993 C 11.704057,-8.232013 11.826277,-7.677360 11.933571,-6.841688 L 12.025655,-6.124478 L 12.025655,-5.249903 L 12.345274,-5.328905 L 14.088651,-5.389813 L 15.273118,-5.209424 L 15.755967,-5.024971 C 16.021533,-4.923523 16.304192,-4.792679 16.384096,-4.734208 "/>
        <path style="fill:none;stroke-width:0.280000;stroke-linecap:round;stroke-linejoin:round;stroke-opacity:1;stroke:#000000;" d="M 29.967193,-21.540327 L 29.923314,-21.612792 C 29.899181,-21.652648 29.764203,-21.864035 29.623364,-22.082542 C 29.290567,-22.598865 28.910457,-23.411522 28.694753,-24.067872 L 28.522868,-24.590884 L 28.279244,-25.927473 L 28.036255,-28.542538 L 27.745629,-30.036985 L 27.298510,-31.306340 L 26.793417,-32.194233 L 26.226004,-32.817838 L 26.185191,-32.777024 L 26.364966,-32.315989 C 27.048180,-30.563883 27.250272,-29.566933 27.465618,-26.886330 C 27.500281,-26.454845 27.579178,-25.803735 27.640945,-25.439421 L 27.753248,-24.777031 L 27.952794,-24.180695 C 28.062545,-23.852711 28.248905,-23.392417 28.366929,-23.157821 L 28.581516,-22.731283 L 29.084826,-22.089950 L 29.364822,-21.876421 C 29.518821,-21.758981 29.717353,-21.635316 29.806006,-21.601610 L 29.967193,-21.540327 "/>
        <path style="fill:none;stroke-width:0.280000;stroke-linecap:round;stroke-linejoin:round;stroke-opacity:1;stroke:#000000;" d="M 22.137636,-5.118171 L 22.137239,-4.622257 L 22.428552,-4.769876 C 22.588774,-4.851067 22.948345,-4.993517 23.227599,-5.086433 L 23.735334,-5.255370 L 24.644489,-5.379678 L 25.885498,-5.379541 L 26.712351,-5.221849 L 26.773885,-7.093998 L 26.901751,-7.704180 C 26.972077,-8.039780 27.117527,-8.588943 27.224973,-8.924543 C 27.477560,-9.713480 27.742678,-10.756131 27.839065,-11.339633 L 27.915295,-11.801114 L 27.910740,-13.718829 L 27.788844,-14.286062 C 27.721801,-14.598040 27.608483,-15.050234 27.537026,-15.290938 L 27.407105,-15.728580 L 27.328168,-15.636543 L 27.136041,-15.113530 C 26.774129,-14.128322 26.258492,-13.221185 25.635252,-12.473255 C 25.166909,-11.911212 24.594018,-11.332155 24.213679,-11.036380 L 23.878448,-10.775684 L 23.580907,-10.334748 C 23.208319,-9.782596 22.903809,-9.124688 22.668285,-8.362987 L 22.485663,-7.772375 L 22.373647,-7.113567 C 22.312039,-6.751223 22.233732,-6.154027 22.199634,-5.786466 L 22.137636,-5.118171 "/>
        <path style="fill:none;stroke-width:0.280000;stroke-linecap:round;stroke-linejoin:round;stroke-opacity:1;stroke:#000000;" d="M 9.345013,-21.650275 L 9.699347,-21.886891 L 9.908620,-22.129704 C 10.544997,-22.868073 11.048404,-24.167487 11.207156,-25.481539 L 11.266831,-25.975495 L 11.393111,-28.241885 L 11.480637,-28.852066 C 11.599594,-29.681362 11.850676,-30.712918 12.176391,-31.710534 L 12.447929,-32.542213 L 12.499325,-32.716551 L 11.964606,-32.135426 L 11.710456,-31.641469 C 11.254390,-30.755076 10.891405,-29.501261 10.751496,-28.329054 L 10.692540,-27.835097 L 10.511231,-25.626820 L 10.452352,-25.249088 C 10.243973,-23.912237 9.825682,-22.797050 9.160628,-21.805280 L 8.898018,-21.413660 L 8.944348,-21.413660 C 8.969830,-21.413660 9.150129,-21.520137 9.345013,-21.650275 "/>
        <path style="fill:none;stroke-width:0.280000;stroke-linecap:round;stroke-linejoin:round;stroke-opacity:1;stroke:#000000;" d="M 18.703977,-16.499097 L 19.028217,-16.365708 L 19.750264,-16.362950 L 20.393474,-16.603605 L 21.030298,-17.185626 L 21.380191,-17.902932 L 21.462257,-18.300919 C 21.507393,-18.519812 21.566588,-18.719731 21.593802,-18.745184 L 21.643282,-18.791463 L 22.631196,-19.037435 L 23.260384,-19.470159 L 23.431726,-19.703515 C 23.525964,-19.831861 23.652441,-20.050180 23.712785,-20.188668 L 23.822503,-20.440464 L 23.822503,-20.887427 L 23.639863,-21.070066 L 23.317503,-21.070066 L 23.109823,-20.840583 L 23.185019,-20.370336 L 23.102161,-20.211716 C 23.056589,-20.124476 22.945054,-19.982661 22.854306,-19.896573 L 22.689308,-19.740049 L 21.991958,-19.413859 L 20.655369,-19.417268 L 20.364806,-19.569092 C 20.015992,-19.751353 19.914370,-19.857106 19.759096,-20.199423 L 19.640952,-20.459885 L 19.638399,-21.014445 L 19.769153,-21.068726 C 19.841067,-21.098581 20.103968,-21.205644 20.353377,-21.306644 L 20.806849,-21.490280 L 21.410034,-21.943505 L 21.664137,-22.418581 L 21.742507,-22.882445 L 21.598070,-23.398324 L 21.027479,-23.911334 L 20.385726,-24.151445 L 19.320529,-24.335267 L 18.933453,-24.298739 C 18.720562,-24.278648 18.354059,-24.209163 18.119003,-24.144329 L 17.691629,-24.026448 L 17.459179,-23.890376 C 17.161328,-23.716020 16.993470,-23.534481 16.880827,-23.264889 L 16.790884,-23.049626 L 16.791208,-22.858894 C 16.791387,-22.753991 16.819720,-22.566643 16.854172,-22.442564 L 16.916811,-22.216966 L 17.431633,-21.666580 L 17.765025,-21.489489 C 17.948390,-21.392089 18.281471,-21.254346 18.505205,-21.183394 C 18.728938,-21.112441 18.944681,-21.028564 18.984633,-20.997000 L 19.057274,-20.939610 L 19.056950,-20.728804 C 19.056771,-20.612860 19.027889,-20.413394 18.992766,-20.285547 L 18.928907,-20.053097 L 18.421888,-19.564787 L 17.807854,-19.380642 L 16.865538,-19.378991 L 16.567001,-19.492426 C 16.402806,-19.554815 16.151539,-19.674384 16.008631,-19.758134 L 15.748797,-19.910407 L 15.432933,-20.324525 L 15.551697,-20.769475 L 15.493435,-20.876186 C 15.415535,-21.018865 15.335114,-21.068109 15.178261,-21.069176 L 15.047508,-21.070066 L 14.801164,-20.823723 L 14.836193,-20.568161 C 14.878557,-20.259080 14.995230,-20.019265 15.265605,-19.685529 L 15.469229,-19.434187 L 16.070551,-19.034931 L 17.139870,-18.764625 L 17.197404,-18.707090 L 17.310183,-18.266130 C 17.552516,-17.318617 17.956328,-16.806670 18.703977,-16.499097 "/>
        <path style="fill:none;stroke-width:0.280000;stroke-linecap:round;stroke-linejoin:round;stroke-opacity:1;stroke:#000000;" d="M 14.030538,-0.791339 L 14.512546,-1.010204 L 14.626634,-1.214069 L 14.342746,-1.779278 L 14.245726,-2.386881 L 14.342316,-2.986323 L 14.582987,-3.458077 L 14.826056,-3.588164 L 14.782528,-3.452423 C 14.561363,-2.762713 14.599618,-2.143570 14.890024,-1.712636 L 15.021888,-1.516963 L 15.483352,-1.248975 L 16.207368,-1.288099 L 16.694209,-1.631418 L 17.124571,-2.270656 L 17.366461,-2.928481 L 17.560392,-4.246483 L 17.500910,-5.989859 L 17.299402,-7.326448 L 16.854021,-9.069825 L 16.779075,-9.324652 L 17.083451,-9.208998 C 17.250858,-9.145389 17.600011,-9.042508 17.859347,-8.980374 L 18.330867,-8.867403 L 19.376893,-8.793938 L 20.481031,-8.936923 L 21.863795,-9.333583 L 21.913210,-9.284168 L 21.709369,-8.450589 C 21.453503,-7.404265 21.345257,-6.733235 21.260446,-5.667661 L 21.193585,-4.827608 L 21.229371,-4.268470 C 21.249053,-3.960943 21.306391,-3.491962 21.356788,-3.226288 L 21.448420,-2.743245 L 21.778799,-2.014610 L 22.322331,-1.433530 L 22.833225,-1.238417 L 23.370724,-1.299001 L 23.841208,-1.631418 L 24.068701,-2.071797 L 24.124426,-2.793669 L 24.036079,-3.171060 C 23.987488,-3.378625 23.958149,-3.558868 23.970882,-3.571601 C 24.016740,-3.617459 24.181941,-3.436237 24.293346,-3.217864 C 24.355866,-3.095315 24.432744,-2.859401 24.464185,-2.693611 L 24.521351,-2.392176 L 24.465549,-2.090312 C 24.434857,-1.924287 24.351684,-1.664925 24.280719,-1.513953 L 24.151691,-1.239459 L 24.210472,-1.144876 C 24.242801,-1.092855 24.355655,-0.991454 24.461259,-0.919539 L 24.653266,-0.788786 L 24.873340,-0.788786 C 25.171521,-0.788786 25.384290,-0.877118 25.609605,-1.094450 L 25.798612,-1.276759 L 26.030780,-1.897285 L 26.030780,-2.920755 L 25.801637,-3.586772 L 25.872624,-3.564004 C 25.977341,-3.530419 26.314387,-2.999438 26.380048,-2.764613 L 26.436920,-2.561219 L 26.437568,-1.728942 L 26.322092,-1.360561 C 26.258581,-1.157952 26.206280,-0.985642 26.205867,-0.977652 C 26.205455,-0.969661 26.271793,-0.963124 26.353285,-0.963124 L 26.501452,-0.963124 L 26.687432,-1.056799 C 26.950620,-1.189361 27.240354,-1.476002 27.385732,-1.747643 L 27.510136,-1.980093 L 27.500092,-3.084232 L 27.404674,-3.338517 C 27.275650,-3.682360 27.279901,-3.687553 27.508787,-3.465707 L 27.708318,-3.272314 L 27.975998,-2.677444 L 27.977550,-1.428149 L 28.042354,-1.428087 C 28.120126,-1.428012 28.403951,-1.642807 28.540736,-1.805255 L 28.639022,-1.921981 L 28.776575,-2.486192 L 28.721989,-3.336760 L 28.408133,-3.978258 L 28.155676,-4.257652 C 28.016825,-4.411318 27.796346,-4.615498 27.665724,-4.711383 L 27.428228,-4.885721 L 27.427610,-6.164197 L 27.596635,-7.326448 L 27.801231,-8.081911 C 28.180545,-9.482518 28.403842,-10.403894 28.477246,-10.871314 L 28.550255,-11.336214 L 28.556656,-13.660716 L 28.348220,-14.969256 L 27.878656,-16.682569 L 27.818826,-16.885531 L 27.528657,-16.638768 C 26.041682,-15.374232 24.413511,-14.558576 22.456858,-14.097975 L 21.759507,-13.933817 L 21.224207,-13.859503 L 21.274036,-15.578430 L 21.320016,-15.723712 L 21.585170,-15.724025 L 22.282520,-15.899304 C 23.720861,-16.260831 24.710083,-16.653962 25.523719,-17.187402 L 25.975515,-17.483611 L 25.938740,-17.520386 L 25.301938,-17.286261 C 24.658329,-17.049633 23.745524,-16.777300 23.212321,-16.662828 L 22.921758,-16.600447 L 21.485951,-16.413741 L 21.462796,-16.436896 C 21.450061,-16.449631 21.603138,-16.505099 21.802968,-16.560157 C 22.846695,-16.847731 24.140616,-17.399538 24.801591,-17.838953 L 25.194530,-18.100178 L 25.779642,-18.718847 L 26.168398,-19.530084 L 26.219001,-20.818229 L 26.119790,-21.162070 C 25.991924,-21.605220 25.780636,-22.025740 25.535586,-22.324791 L 25.340735,-22.562581 L 24.973879,-22.795432 C 24.772108,-22.923499 24.384742,-23.167497 24.113066,-23.337648 C 23.841390,-23.507799 23.418428,-23.799082 23.173150,-23.984943 L 22.727192,-24.322873 L 22.392336,-24.701922 C 22.208166,-24.910399 21.945599,-25.246407 21.808854,-25.448607 L 21.560226,-25.816243 L 21.216373,-26.677927 L 21.033100,-27.649624 L 21.033100,-28.871288 L 21.230183,-30.106568 L 21.236494,-32.024282 L 20.965232,-32.696332 L 20.592102,-33.186533 L 19.811410,-33.585169 L 18.853880,-33.633644 L 18.197546,-33.386051 L 17.666844,-32.918909 L 17.305035,-32.183970 L 17.179316,-31.036369 L 17.275553,-30.368074 C 17.328483,-30.000513 17.413570,-29.438274 17.464634,-29.118655 L 17.557479,-28.537529 L 17.525243,-28.014516 C 17.447054,-26.745910 17.106992,-25.819182 16.401213,-24.951337 L 16.084041,-24.561335 L 15.609359,-24.160396 C 15.164705,-23.784820 14.505764,-23.330709 13.873236,-22.963941 L 13.599710,-22.805338 L 12.934555,-22.087036 L 12.550157,-21.255244 L 12.410264,-20.439453 L 12.549552,-19.530084 L 12.908298,-18.796219 L 13.607855,-18.048390 L 14.419898,-17.508544 L 14.980681,-17.255645 C 15.515510,-17.014450 16.472305,-16.676217 17.014672,-16.536616 C 17.153737,-16.500822 17.256298,-16.460317 17.242586,-16.446605 L 17.217655,-16.421675 L 16.553898,-16.512812 C 16.188831,-16.562937 15.654784,-16.654268 15.367127,-16.715769 L 14.844114,-16.827589 L 12.759716,-17.496144 L 13.666822,-16.872963 L 14.101953,-16.674668 C 14.679098,-16.411654 15.928916,-15.994803 16.622555,-15.833972 L 17.180632,-15.704574 L 17.253439,-14.125617 L 17.327453,-13.864110 L 16.979127,-13.864110 L 16.173289,-14.096619 C 14.173738,-14.673552 12.617447,-15.449271 11.290528,-16.530389 L 10.933132,-16.821580 L 10.700032,-16.275781 L 10.341727,-14.822967 L 10.143922,-13.370153 L 10.159536,-11.394327 L 10.340441,-10.280303 L 10.580287,-9.413557 C 10.991413,-7.927850 11.151888,-7.286624 11.248046,-6.745323 L 11.340956,-6.222310 L 11.357361,-4.990104 L 10.354110,-4.014033 L 10.230476,-3.768293 C 10.162478,-3.633137 10.066294,-3.347708 10.016733,-3.134008 L 9.926623,-2.745461 L 9.966260,-2.508059 C 9.988061,-2.377487 10.058249,-2.158749 10.122233,-2.021973 L 10.238568,-1.773289 L 10.448002,-1.600657 C 10.563190,-1.505709 10.674805,-1.428024 10.696035,-1.428024 L 10.734635,-1.428024 L 10.781670,-2.735557 L 10.933010,-3.026119 C 11.016247,-3.185929 11.152315,-3.380079 11.235383,-3.457565 L 11.386417,-3.598448 L 11.385788,-3.544734 C 11.385442,-3.515191 11.346216,-3.362648 11.298619,-3.205749 L 11.212079,-2.920479 L 11.212079,-2.262695 L 11.385879,-1.677449 L 11.875198,-1.121553 L 12.064785,-1.042338 C 12.169058,-0.998770 12.315510,-0.963124 12.390234,-0.963124 L 12.526095,-0.963124 L 12.311808,-1.980093 L 12.375064,-2.587875 L 12.613039,-3.223922 L 12.785957,-3.409031 C 12.994774,-3.632570 13.044189,-3.607554 12.930636,-3.335785 C 12.884185,-3.224611 12.815780,-2.959089 12.778627,-2.745737 L 12.711075,-2.357825 L 12.846617,-1.573306 L 13.132883,-1.082438 L 13.633962,-0.788786 L 14.030538,-0.791339 "/>
        <path style="fill:none;stroke-width:0.280000;stroke-linecap:round;stroke-linejoin:round;stroke-opacity:1;stroke:#000000;" d="M 12.432443,-0.186199 L 12.635837,-0.160686 L 15.018452,-0.195507 L 16.150332,-0.491196 L 16.971849,-0.922890 L 17.477309,-1.500707 L 21.286477,-1.515193 L 21.868385,-0.899884 L 22.805533,-0.438707 L 23.851559,-0.199736 L 25.943611,-0.135482 L 27.280200,-0.331483 L 28.352739,-0.686395 L 29.102403,-1.178776 L 30.243940,-1.012894 L 31.812979,-1.070679 L 32.613859,-1.260020 L 32.894096,-1.402026 C 33.048227,-1.480130 33.261690,-1.620733 33.368459,-1.714478 L 33.562585,-1.884922 L 33.905030,-2.503106 L 33.905030,-3.549132 L 33.628627,-4.277481 L 32.878105,-5.088114 L 31.704338,-5.675722 L 31.366399,-5.769678 C 31.180532,-5.821353 31.028459,-5.881403 31.028459,-5.903121 C 31.028459,-5.924839 31.079629,-6.091336 31.142170,-6.273114 C 31.204711,-6.454892 31.322389,-6.900158 31.403676,-7.262594 L 31.551472,-7.921568 L 31.551472,-8.929443 L 31.367093,-9.825288 L 30.897347,-10.729752 L 30.223241,-11.339784 L 29.226970,-11.898998 L 29.218078,-13.195816 L 29.201270,-13.282985 C 29.192026,-13.330927 29.166160,-13.553208 29.143790,-13.776941 C 29.085192,-14.363013 28.840556,-15.526768 28.607036,-16.330330 L 28.405275,-17.024608 L 28.197927,-17.453769 L 28.308307,-17.651007 L 28.272919,-17.864139 C 28.253456,-17.981361 28.182268,-18.299892 28.114723,-18.571985 L 27.991915,-19.066700 L 28.304352,-19.502247 C 28.642224,-19.973253 28.996817,-20.619988 29.108199,-20.968369 C 29.146519,-21.088226 29.184824,-21.186291 29.193323,-21.186291 C 29.201822,-21.186291 29.363235,-21.132509 29.552020,-21.066774 L 29.895264,-20.947257 L 30.592615,-20.938312 L 31.089683,-21.142043 L 31.778101,-22.145148 L 32.149008,-22.522880 C 32.353007,-22.730632 32.799092,-23.158441 33.140309,-23.473565 L 33.760702,-24.046518 L 34.075813,-24.493662 C 34.249124,-24.739592 34.509440,-25.174755 34.654292,-25.460692 L 34.917660,-25.980577 L 35.181507,-26.968490 L 35.179869,-28.421304 L 35.072553,-28.769979 C 34.722831,-29.906253 33.945419,-30.813889 32.219766,-32.100637 L 31.638641,-32.533958 L 28.326226,-34.739296 L 26.931524,-35.420951 L 26.234174,-35.611392 L 24.258347,-35.627596 L 24.062836,-35.734054 C 23.801562,-35.876320 23.386714,-36.263788 23.237944,-36.504504 C 23.171709,-36.611674 23.017699,-36.932901 22.895700,-37.218341 L 22.673884,-37.737323 L 21.956630,-38.679547 L 21.538449,-38.974540 C 21.020468,-39.339935 20.813584,-39.447512 20.302583,-39.617175 L 19.899906,-39.750872 L 18.505205,-39.751160 L 18.070826,-39.615812 C 17.532508,-39.448078 17.214550,-39.286472 16.745702,-38.942303 L 16.380901,-38.674511 L 15.707365,-37.766113 L 15.546013,-37.364981 C 15.457270,-37.144358 15.317723,-36.814850 15.235908,-36.632740 L 15.087154,-36.301630 L 14.611664,-35.836215 L 14.040548,-35.584340 L 13.715924,-35.581057 C 13.537381,-35.579252 13.103643,-35.584730 12.752062,-35.593231 L 12.112824,-35.608687 L 11.737940,-35.481996 C 10.965988,-35.221117 10.127555,-34.723229 8.800409,-33.737597 L 8.277396,-33.349171 L 7.376651,-32.689576 C 5.105861,-31.026727 4.455626,-30.385875 3.946141,-29.308568 L 3.776255,-28.949346 L 3.583718,-28.083927 L 3.649185,-26.852265 L 3.892115,-26.003103 L 4.176158,-25.439771 C 4.332381,-25.129938 4.598012,-24.680309 4.766448,-24.440594 L 5.072697,-24.004750 L 7.002039,-22.087036 L 7.443151,-21.240502 L 7.870608,-20.958332 L 8.474605,-20.829312 L 8.840108,-20.922949 C 9.041135,-20.974450 9.263887,-21.054770 9.335113,-21.101439 C 9.406338,-21.148108 9.474470,-21.186291 9.486516,-21.186291 C 9.498562,-21.186291 9.541711,-21.075151 9.582401,-20.939313 C 9.623092,-20.803475 9.756135,-20.496205 9.878052,-20.256491 C 10.094291,-19.831323 10.200014,-19.668794 10.530964,-19.252772 L 10.692480,-19.049737 L 10.457501,-17.728595 L 10.471393,-17.379919 L 10.263771,-16.792737 C 10.024773,-16.116818 9.805962,-15.283456 9.670290,-14.532404 L 9.575811,-14.009391 L 9.510008,-11.941445 L 9.242377,-11.791471 C 9.095180,-11.708985 8.798028,-11.524125 8.582039,-11.380671 L 8.189331,-11.119845 L 7.942068,-10.844828 C 7.667877,-10.539862 7.496891,-10.231837 7.311602,-9.709063 L 7.188019,-9.360387 L 7.130348,-8.007980 L 7.259134,-7.406469 C 7.329967,-7.075638 7.462497,-6.600613 7.553647,-6.350858 L 7.719373,-5.896758 L 7.521932,-5.833146 L 6.456987,-5.432696 L 5.778556,-4.991316 L 5.218930,-4.388664 L 4.850536,-3.607245 L 4.809529,-2.735557 L 5.067821,-2.047696 L 5.568382,-1.561205 L 5.877329,-1.410052 C 6.047249,-1.326918 6.356045,-1.217779 6.563541,-1.167521 L 6.940807,-1.076143 L 8.199935,-1.003312 L 9.695233,-1.155772 L 10.105182,-0.843088 L 11.241136,-0.389376 L 11.735092,-0.300544 C 12.006769,-0.251687 12.320576,-0.200231 12.432443,-0.186199 "/>
    </g>
</svg>
