<?xml version="1.0" encoding="UTF-8"?>
<!-- Created by Vectric (http://www.vectric.com/) -->
<svg width="37.00000000mm" height="24.00000000mm" viewBox="0.00000000 -24.00000000 37.00000000 24.00000000" id="svg2" version="1.1" xmlns="http://www.w3.org/2000/svg" xmlns:xlink="http://www.w3.org/1999/xlink" xmlns:inkscape="http://www.inkscape.org/namespaces/inkscape">
    <g inkscape:groupmode="layer" id="d8b9d777-f671-47b0-a326-582c40570768" inkscape:label="Capa 1" style="stroke:#000000;">
        <path style="fill:none;stroke-width:0.280000;stroke-linecap:round;stroke-linejoin:round;stroke-opacity:1;stroke:#000000;" d="M 150.000000,167.500000 A 0.500000,0.500000 0 0,0 149.500000,168.000000 A 0.500000,0.500000 0 0,0 150.000000,168.500000 A 0.500000,0.500000 0 0,0 150.500000,168.000000 A 0.500000,0.500000 0 0,0 150.000000,167.500000 "/>
        <path style="fill:none;stroke-width:0.280000;stroke-linecap:round;stroke-linejoin:round;stroke-opacity:1;stroke:#000000;" d="M 150.000000,167.500000 A 0.500000,0.500000 0 0,0 149.500000,168.000000 A 0.500000,0.500000 0 0,0 150.000000,168.500000 A 0.500000,0.500000 0 0,0 150.500000,168.000000 A 0.500000,0.500000 0 0,0 150.000000,167.500000 "/>
        <path style="fill:none;stroke-width:0.280000;stroke-linecap:round;stroke-linejoin:round;stroke-opacity:1;stroke:#000000;" d="M 5.397780,-1.530421 L 5.600511,-1.504315 L 6.697840,-1.496689 L 7.379267,-1.586359 L 7.741048,-1.675257 C 8.995708,-1.983556 10.139308,-2.621489 10.971956,-3.477553 L 11.188025,-3.699697 L 11.388607,-3.757208 L 25.419163,-3.757208 L 25.587371,-3.693272 L 26.222021,-3.077316 L 26.508431,-2.864775 C 27.113809,-2.415533 27.627679,-2.146091 28.453003,-1.845160 L 28.724339,-1.746225 L 29.538346,-1.559996 L 30.228018,-1.488265 L 31.407547,-1.523061 L 31.844699,-1.614884 C 33.080899,-1.874545 34.022149,-2.365545 34.861143,-3.188402 L 35.149156,-3.470875 L 35.561019,-4.002249 L 35.738182,-4.320109 C 35.959602,-4.717373 36.092133,-5.017367 36.213356,-5.395698 L 36.307923,-5.690837 L 36.471080,-6.575320 L 36.471441,-7.991912 L 36.403426,-8.368665 C 36.290959,-8.991655 36.065824,-9.697610 35.831515,-10.162009 C 35.635313,-10.550882 35.227548,-11.172900 34.957117,-11.495848 L 34.824501,-11.654218 L 35.071052,-11.934238 L 35.579893,-12.693790 L 35.972136,-13.507576 L 36.106550,-13.914469 C 36.261521,-14.383591 36.349430,-14.771197 36.395093,-15.186707 L 36.427257,-15.479386 L 36.426979,-16.250338 L 36.310275,-17.033985 L 36.217391,-17.344098 C 35.842596,-18.595427 35.122014,-19.543639 33.985236,-20.281385 C 33.527178,-20.578655 33.063923,-20.786228 32.457079,-20.966113 L 32.149934,-21.057160 L 31.407547,-21.184323 L 30.382501,-21.214502 L 29.371057,-21.084628 L 29.002475,-20.983294 C 28.799755,-20.927561 28.498226,-20.833008 28.332410,-20.773177 L 28.030925,-20.664393 L 27.578699,-20.440824 C 26.951465,-20.130734 26.573168,-19.889359 26.076163,-19.482120 L 25.900157,-19.337903 L 25.558756,-19.165788 L 25.136678,-19.093422 L 23.076500,-19.060807 L 22.860624,-19.101295 L 22.772487,-19.271686 L 22.679879,-19.890878 L 22.574011,-20.248222 C 22.390707,-20.866938 22.086618,-21.492224 21.753558,-21.935286 C 21.358996,-22.460163 20.825203,-22.902860 20.222488,-23.205065 C 19.915560,-23.358961 19.773324,-23.410778 19.370834,-23.515325 L 19.088361,-23.588698 L 18.439122,-23.649907 L 17.681168,-23.588376 L 16.918929,-23.379526 L 16.255562,-23.048905 L 15.792504,-22.730491 L 15.183243,-22.145334 L 15.004583,-21.901518 C 14.541201,-21.269142 14.215007,-20.481045 14.059862,-19.619030 L 13.998928,-19.280472 L 13.906789,-19.102344 L 13.628173,-19.060574 L 11.690489,-19.092424 L 11.158323,-19.190117 L 11.042156,-19.249365 C 10.978264,-19.281952 10.847016,-19.374011 10.750493,-19.453941 C 10.259413,-19.860606 9.752667,-20.176454 9.076839,-20.497108 L 8.675648,-20.687457 L 8.328942,-20.808888 C 7.870030,-20.969617 7.441284,-21.073094 6.927041,-21.147231 L 6.504963,-21.208082 L 5.721104,-21.207914 L 5.449769,-21.177576 C 4.050080,-21.021080 3.007844,-20.571202 2.032726,-19.702618 L 1.811414,-19.505485 L 1.570761,-19.219152 C 1.262834,-18.852776 1.098503,-18.602100 0.881152,-18.167194 L 0.706452,-17.817631 L 0.598954,-17.475313 C 0.470625,-17.066660 0.416102,-16.809948 0.367744,-16.386709 L 0.331669,-16.070976 L 0.364553,-15.255710 L 0.488497,-14.552293 L 0.594549,-14.195706 C 0.714975,-13.790789 0.783088,-13.604092 0.928071,-13.281524 C 1.150879,-12.785808 1.548236,-12.127300 1.824113,-11.796587 L 1.943982,-11.652891 L 1.915122,-11.615746 C 1.899249,-11.595316 1.820758,-11.497222 1.740698,-11.397759 C 0.994979,-10.471312 0.476704,-9.225971 0.324138,-7.993964 L 0.279317,-7.632029 L 0.279840,-7.284516 C 0.282198,-5.715499 0.834451,-4.295942 1.843308,-3.265643 C 2.501196,-2.593773 3.238494,-2.134622 4.183536,-1.808269 C 4.431740,-1.722556 5.108741,-1.567643 5.397780,-1.530421 "/>
        <path style="fill:none;stroke-width:0.280000;stroke-linecap:round;stroke-linejoin:round;stroke-opacity:1;stroke:#000000;" d="M 18.363369,-21.635194 A 1.514781,1.514781 0 0,0 16.848588,-20.120413 A 1.514781,1.514781 0 0,0 18.363369,-18.605632 A 1.514781,1.514781 0 0,0 19.878150,-20.120413 A 1.514781,1.514781 0 0,0 18.363369,-21.635194 "/>
        <path style="fill:none;stroke-width:0.280000;stroke-linecap:round;stroke-linejoin:round;stroke-opacity:1;stroke:#000000;" d="M 13.164599,-10.186275 L 13.559690,-10.103595 L 14.011916,-10.129691 L 14.162658,-10.180788 C 14.245567,-10.208891 14.381234,-10.275016 14.464142,-10.327731 L 14.614884,-10.423578 L 14.726885,-10.547966 C 14.866720,-10.703268 14.973257,-10.910984 15.034741,-11.148195 L 15.082185,-11.331235 L 15.082185,-11.870486 L 14.963492,-12.334445 L 14.718737,-12.804767 L 14.559096,-12.998256 C 14.352425,-13.248745 14.152028,-13.414679 13.853486,-13.582522 L 13.612562,-13.717971 L 13.232169,-13.815397 L 12.590621,-13.793444 L 12.112567,-13.557430 L 11.764148,-13.209410 L 11.586218,-12.829285 L 11.555445,-12.667065 C 11.538520,-12.577844 11.524673,-12.413925 11.524673,-12.302799 L 11.524673,-12.100752 L 11.641321,-11.644786 L 11.722720,-11.483660 C 11.841038,-11.249455 11.959484,-11.085928 12.180313,-10.851900 L 12.375898,-10.644626 L 12.569740,-10.506340 C 12.676354,-10.430283 12.853811,-10.327154 12.964091,-10.277165 L 13.164599,-10.186275 "/>
        <path style="fill:none;stroke-width:0.280000;stroke-linecap:round;stroke-linejoin:round;stroke-opacity:1;stroke:#000000;" d="M 16.148478,-12.447940 L 16.303195,-12.394480 L 16.769119,-12.392512 L 17.174422,-12.545027 L 17.331045,-12.663246 C 17.667762,-12.917401 17.905528,-13.339020 18.021955,-13.888404 L 18.065830,-14.095436 L 18.066422,-14.818802 L 18.034812,-15.014713 C 18.017427,-15.122465 17.964435,-15.326576 17.917051,-15.468294 L 17.830900,-15.725963 L 17.603801,-16.113342 L 17.115064,-16.608590 L 16.734369,-16.788581 L 16.333045,-16.860282 L 15.911266,-16.794668 L 15.481976,-16.582598 L 15.082825,-16.159591 L 14.995520,-15.986510 C 14.947503,-15.891316 14.877784,-15.718488 14.840590,-15.602448 L 14.772964,-15.391466 L 14.743337,-14.510987 L 14.845695,-14.005962 L 14.938731,-13.764367 C 14.989901,-13.631489 15.086753,-13.430855 15.153957,-13.318514 L 15.276148,-13.114256 L 15.647788,-12.708985 L 15.820774,-12.605192 C 15.915916,-12.548106 16.063383,-12.477343 16.148478,-12.447940 "/>
        <path style="fill:none;stroke-width:0.280000;stroke-linecap:round;stroke-linejoin:round;stroke-opacity:1;stroke:#000000;" d="M 19.661776,-12.510411 L 19.981301,-12.396917 L 20.433527,-12.393784 L 20.829676,-12.533598 L 21.008457,-12.656105 C 21.417527,-12.936414 21.690475,-13.326151 21.889825,-13.914595 L 21.981722,-14.185857 L 22.054845,-14.781005 L 22.015993,-15.333570 L 21.891609,-15.782305 L 21.671848,-16.205253 L 21.276957,-16.604037 L 20.908790,-16.789837 L 20.511062,-16.859080 L 20.074107,-16.785398 L 19.939269,-16.727615 C 19.865107,-16.695834 19.721455,-16.610638 19.620040,-16.538290 L 19.435651,-16.406748 L 19.299777,-16.245720 C 19.113632,-16.025114 18.998452,-15.827638 18.886491,-15.537138 L 18.791621,-15.290986 L 18.699994,-14.765695 L 18.702097,-14.155717 L 18.783975,-13.703613 L 18.863945,-13.492948 C 18.963128,-13.231666 19.057151,-13.069517 19.217378,-12.883422 L 19.341618,-12.739125 L 19.661776,-12.510411 "/>
        <path style="fill:none;stroke-width:0.280000;stroke-linecap:round;stroke-linejoin:round;stroke-opacity:1;stroke:#000000;" d="M 22.634361,-10.161204 L 22.770029,-10.134831 C 22.844646,-10.120326 22.955378,-10.106972 23.016101,-10.105156 C 23.169792,-10.100559 23.535692,-10.174466 23.741026,-10.251582 L 23.913091,-10.316203 L 24.370376,-10.614641 L 24.776841,-11.021131 L 24.887289,-11.187557 C 24.948036,-11.279092 25.040158,-11.444609 25.092005,-11.555374 L 25.186272,-11.756764 L 25.283487,-12.250079 L 25.214255,-12.798424 L 25.003361,-13.225022 L 24.641939,-13.569667 L 24.201434,-13.778805 L 23.780000,-13.830832 L 23.599110,-13.808237 C 23.338981,-13.775746 23.262374,-13.752602 23.028171,-13.635747 C 22.746090,-13.495004 22.548910,-13.344848 22.316201,-13.093569 L 22.121417,-12.883241 L 21.991924,-12.645412 C 21.920703,-12.514606 21.835134,-12.326204 21.801770,-12.226741 L 21.741109,-12.045900 L 21.675166,-11.533515 L 21.772631,-11.059541 L 21.953094,-10.674004 L 22.257918,-10.351785 L 22.634361,-10.161204 "/>
        <path style="fill:none;stroke-width:0.280000;stroke-linecap:round;stroke-linejoin:round;stroke-opacity:1;stroke:#000000;" d="M 14.997622,-6.353541 L 15.459040,-6.216992 L 16.122305,-6.214809 L 16.525290,-6.300194 L 16.730801,-6.389406 C 16.843832,-6.438473 17.081777,-6.541201 17.259568,-6.617690 L 17.582823,-6.756763 L 18.021654,-6.855270 L 18.745216,-6.858672 L 19.273158,-6.727195 L 19.612155,-6.572768 C 19.798604,-6.487833 20.066470,-6.376765 20.207414,-6.325949 L 20.463675,-6.233556 L 21.166243,-6.206544 L 21.579166,-6.277405 L 22.083234,-6.520091 L 22.457090,-6.899406 L 22.678217,-7.320097 L 22.769137,-7.705705 L 22.770029,-8.283797 L 22.653380,-8.739763 L 22.571981,-8.900889 C 22.527211,-8.989509 22.449312,-9.123049 22.398871,-9.197647 C 22.262691,-9.399043 21.828567,-9.836441 21.507592,-10.095648 L 21.224979,-10.323874 L 19.860707,-11.657151 L 19.408481,-11.960242 L 19.182368,-12.052574 C 19.058006,-12.103357 18.884362,-12.159928 18.796492,-12.178289 L 18.636729,-12.211671 L 18.154151,-12.211671 L 17.720170,-12.113935 L 17.342102,-11.943639 L 16.832799,-11.576068 L 16.432329,-11.167929 C 16.212071,-10.943453 15.869058,-10.614986 15.670079,-10.438002 L 15.308298,-10.116213 L 15.127407,-9.968320 C 14.683157,-9.605109 14.393584,-9.267890 14.207782,-8.897383 L 14.110108,-8.702610 L 13.997634,-8.157808 L 13.997238,-8.002223 C 13.997020,-7.916652 14.017014,-7.740331 14.041668,-7.610400 L 14.086494,-7.374162 L 14.302998,-6.934341 L 14.654037,-6.560375 L 14.997622,-6.353541 "/>
    </g>
</svg>
