<?xml version="1.0" encoding="UTF-8"?>
<!-- Created by Vectric (http://www.vectric.com/) -->
<svg width="61.00000000mm" height="28.00000000mm" viewBox="0.00000000 -30.00000000 61.00000000 28.00000000" id="svg2" version="1.1" xmlns="http://www.w3.org/2000/svg" xmlns:xlink="http://www.w3.org/1999/xlink" xmlns:inkscape="http://www.inkscape.org/namespaces/inkscape">
    <g inkscape:groupmode="layer" id="762e359e-0d41-4dd1-9ab4-c40ae8442b98" inkscape:label="Capa 1" style="stroke:#000000;">
        <path style="fill:none;stroke-width:0.280000;stroke-linecap:round;stroke-linejoin:round;stroke-opacity:1;stroke:#000000;" d="M 0.388898,-13.826224 A 10.000000,10.000000 0 0,0 10.388898,-3.826224 L 50.388898,-3.826224 A 10.000000,10.000000 0 0,0 60.388898,-13.826224 L 60.388898,-18.826224 A 10.000000,10.000000 0 0,0 50.388898,-28.826224 L 10.388898,-28.826224 A 10.000000,10.000000 0 0,0 0.388898,-18.826224 L 0.388898,-13.826224 "/>
        <path style="fill:none;stroke-width:0.280000;stroke-linecap:round;stroke-linejoin:round;stroke-opacity:1;stroke:#000000;" d="M 7.429344,-10.939365 A 0.709554,0.709554 0 0,0 8.138898,-10.229811 L 9.219790,-10.229811 A 0.709554,0.709554 0 0,0 9.929344,-10.939365 L 9.929344,-21.520257 A 0.709554,0.709554 0 0,0 9.219790,-22.229811 L 8.138898,-22.229811 A 0.709554,0.709554 0 0,0 7.429344,-21.520257 L 7.429344,-10.939365 "/>
    </g>
</svg>
