<?xml version="1.0" encoding="UTF-8"?>
<!-- Created by Vectric (http://www.vectric.com/) -->
<svg width="61.00000000mm" height="28.00000000mm" viewBox="0.00000000 -30.00000000 61.00000000 28.00000000" id="svg2" version="1.1" xmlns="http://www.w3.org/2000/svg" xmlns:xlink="http://www.w3.org/1999/xlink" xmlns:inkscape="http://www.inkscape.org/namespaces/inkscape">
    <g inkscape:groupmode="layer" id="762e359e-0d41-4dd1-9ab4-c40ae8442b98" inkscape:label="Capa 1" style="stroke:#000000;">
        <path style="fill:none;stroke-width:0.280000;stroke-linecap:round;stroke-linejoin:round;stroke-opacity:1;stroke:#000000;" d="M 0.388898,-13.826224 A 10.000000,10.000000 0 0,0 10.388898,-3.826224 L 50.388898,-3.826224 A 10.000000,10.000000 0 0,0 60.388898,-13.826224 L 60.388898,-18.826224 A 10.000000,10.000000 0 0,0 50.388898,-28.826224 L 10.388898,-28.826224 A 10.000000,10.000000 0 0,0 0.388898,-18.826224 L 0.388898,-13.826224 "/>
        <path style="fill:none;stroke-width:0.280000;stroke-linecap:round;stroke-linejoin:round;stroke-opacity:1;stroke:#000000;" d="M 5.500249,-17.825000 A 1.500000,1.500000 0 0,0 4.000249,-16.325000 A 1.500000,1.500000 0 0,0 5.500249,-14.825000 A 1.500000,1.500000 0 0,0 7.000249,-16.325000 A 1.500000,1.500000 0 0,0 5.500249,-17.825000 "/>
    </g>
</svg>
