<?xml version="1.0" encoding="UTF-8"?>
<!-- Created by Vectric (http://www.vectric.com/) -->
<svg width="80.00000000mm" height="80.00000000mm" viewBox="0.00000000 -80.00000000 80.00000000 80.00000000" id="svg2" version="1.1" xmlns="http://www.w3.org/2000/svg" xmlns:xlink="http://www.w3.org/1999/xlink" xmlns:inkscape="http://www.inkscape.org/namespaces/inkscape">
    <g inkscape:groupmode="layer" id="6935a3f8-5b39-42a6-b33f-289d196bf070" inkscape:label="Capa 1" style="stroke:#000000;">
        <path style="fill:none;stroke-width:0.280000;stroke-linecap:round;stroke-linejoin:round;stroke-opacity:1;stroke:#000000;" d="M 12.141935,-48.340864 L 15.298121,-46.778590 L 18.842992,-46.778013 L 20.033994,-47.343181 C 20.689045,-47.654023 21.690503,-48.394233 22.259456,-48.988091 L 23.293915,-50.067834 L 57.067874,-50.067834 L 58.210662,-48.323719 L 61.403664,-46.778013 L 64.851684,-46.778013 L 67.204185,-47.784581 L 69.351408,-50.067834 L 75.007110,-50.067834 L 77.175947,-51.892790 L 78.397324,-54.945311 L 78.476362,-58.415237 L 77.249530,-60.287619 L 75.063202,-61.418214 L 75.063202,-63.814647 L 73.254166,-67.444909 L 71.005974,-68.772948 L 68.055359,-68.993014 L 66.898701,-70.078739 C 66.262539,-70.675889 64.837341,-71.834157 63.731596,-72.652668 L 61.721150,-74.140871 L 55.507044,-77.110049 L 49.658473,-78.650056 L 41.251153,-78.665099 L 35.586094,-77.147572 L 32.986845,-75.843100 C 29.679264,-74.183140 27.726884,-72.835071 25.076170,-70.380978 L 22.959765,-68.421560 L 13.606630,-67.576063 L 7.940383,-65.934885 L 4.469005,-63.900522 L 3.753263,-62.741365 C 3.359604,-62.103828 2.931621,-61.170980 2.802189,-60.668368 C 2.672756,-60.165757 2.244793,-59.316770 1.851159,-58.781731 L 1.135461,-57.808934 L 1.950956,-53.174887 L 3.287413,-51.347209 L 5.794194,-50.068970 L 11.010381,-50.067834 L 12.141935,-48.340864 "/>
    </g>
</svg>
