<?xml version="1.0" encoding="UTF-8"?>
<!-- Created by Vectric (http://www.vectric.com/) -->
<svg width="80.00000000mm" height="80.00000000mm" viewBox="0.00000000 -80.00000000 80.00000000 80.00000000" id="svg2" version="1.1" xmlns="http://www.w3.org/2000/svg" xmlns:xlink="http://www.w3.org/1999/xlink" xmlns:inkscape="http://www.inkscape.org/namespaces/inkscape">
    <g inkscape:groupmode="layer" id="6935a3f8-5b39-42a6-b33f-289d196bf070" inkscape:label="Capa 1" style="stroke:#000000;">
        <path style="fill:none;stroke-width:0.280000;stroke-linecap:round;stroke-linejoin:round;stroke-opacity:1;stroke:#000000;" d="M 13.732166,-8.878352 L 69.141124,-8.918171 L 69.701308,-9.383353 L 69.701308,-44.083660 L 69.870684,-44.083660 L 74.772964,-40.863687 L 75.001840,-40.863687 C 75.127722,-40.863687 75.386061,-41.035278 75.575927,-41.245000 L 75.921139,-41.626312 L 76.989102,-43.236299 C 77.576482,-44.121791 78.310791,-45.181367 78.620900,-45.590912 L 79.184733,-46.335540 L 79.184733,-47.105679 L 77.914632,-48.095055 L 61.388432,-59.053453 L 61.433094,-72.470259 L 61.210536,-73.030012 L 60.471904,-73.228256 L 54.158918,-73.232884 L 53.443619,-72.639731 L 53.359335,-64.391308 L 40.535741,-72.918490 L 39.773859,-73.265884 L 38.780367,-72.751749 L 26.602529,-64.643994 L 0.523110,-47.294549 L 0.423774,-46.371535 L 1.304770,-45.185229 L 4.048876,-41.038799 L 4.659315,-40.844910 L 5.434170,-41.256715 L 9.705424,-44.083660 L 9.921862,-44.083660 L 9.921862,-9.361071 L 10.674611,-8.833435 L 13.732166,-8.878352 "/>
    </g>
</svg>
