<?xml version="1.0" encoding="UTF-8"?>
<!-- Created by Vectric (http://www.vectric.com/) -->
<svg width="80.00000000mm" height="80.00000000mm" viewBox="0.00000000 -80.00000000 80.00000000 80.00000000" id="svg2" version="1.1" xmlns="http://www.w3.org/2000/svg" xmlns:xlink="http://www.w3.org/1999/xlink" xmlns:inkscape="http://www.inkscape.org/namespaces/inkscape">
    <g inkscape:groupmode="layer" id="6935a3f8-5b39-42a6-b33f-289d196bf070" inkscape:label="Capa 1" style="stroke:#000000;">
        <path style="fill:none;stroke-width:0.280000;stroke-linecap:round;stroke-linejoin:round;stroke-opacity:1;stroke:#000000;" d="M 70.692036,-36.487232 A 24.254282,24.254282 0 0,0 73.881479,-62.496523 A 17.011938,17.011938 0 0,0 64.192408,-71.167654 A 27.992777,27.992777 0 0,0 54.954809,-72.750344 A 17.525454,17.525454 0 0,0 41.649824,-66.662222 L 39.600000,-62.810741 A 20.810854,20.810854 0 0,0 27.523389,-71.796426 A 22.082914,22.082914 0 0,0 5.768841,-60.571281 A 21.417358,21.417358 0 0,0 7.955835,-36.562531 A 49.523170,49.523170 0 0,0 13.600873,-30.747308 A 655.888977,655.888977 0 0,1 24.815894,-20.714800 L 42.443671,-4.587992 L 70.692036,-36.487232 "/>
    </g>
</svg>
