<?xml version="1.0" encoding="UTF-8"?>
<!-- Created by Vectric (http://www.vectric.com/) -->
<svg width="80.00000000mm" height="80.00000000mm" viewBox="0.00000000 -80.00000000 80.00000000 80.00000000" id="svg2" version="1.1" xmlns="http://www.w3.org/2000/svg" xmlns:xlink="http://www.w3.org/1999/xlink" xmlns:inkscape="http://www.inkscape.org/namespaces/inkscape">
    <g inkscape:groupmode="layer" id="6935a3f8-5b39-42a6-b33f-289d196bf070" inkscape:label="Capa 1" style="stroke:#000000;">
        <path style="fill:none;stroke-width:0.280000;stroke-linecap:round;stroke-linejoin:round;stroke-opacity:1;stroke:#000000;" d="M 39.127705,-58.170718 L 38.979118,-57.470540 L 37.038591,-57.823242 L 33.448760,-57.698284 L 33.032869,-57.327054 C 32.804129,-57.122878 32.492730,-56.663481 32.340871,-56.306172 L 32.064764,-55.656521 L 31.872938,-51.660639 L 7.331787,-36.555550 L 1.948956,-33.264515 L 1.648090,-32.970504 L 0.957503,-26.143760 L 1.397762,-24.197214 L 2.598608,-24.194804 L 2.969838,-24.194804 L 3.341067,-24.194804 L 3.712297,-24.194804 L 4.640371,-24.194804 L 5.568445,-24.194804 L 5.939675,-24.194804 L 6.310905,-24.194804 L 6.682135,-24.194804 L 7.053364,-24.194804 L 7.424594,-24.194804 L 7.795824,-24.194804 L 8.167053,-24.194804 L 8.538283,-24.194804 L 8.909513,-24.194804 L 9.280742,-24.194804 L 9.626688,-24.196228 L 9.930394,-24.200499 L 12.013495,-27.257449 L 17.828393,-27.359730 L 17.588000,-29.706106 L 18.189724,-29.937009 L 27.870212,-35.702924 L 27.934632,-35.702924 C 27.970063,-35.702924 28.094591,-35.413441 28.211360,-35.059627 L 28.423667,-34.416330 L 29.693355,-35.238887 L 29.933045,-37.011493 L 32.204176,-38.256927 L 39.969862,-42.366618 L 40.674176,-41.808791 C 41.061550,-41.501985 41.930548,-40.963211 42.605285,-40.611514 L 43.832079,-39.972066 L 45.895841,-39.972066 L 47.114882,-41.264626 L 47.703016,-43.850453 L 47.706641,-45.775163 A 56.472504,56.472504 0 0,0 57.423510,-43.260062 A 15.163980,15.163980 0 0,0 69.470248,-46.439848 A 21.192640,21.192640 0 0,0 77.278425,-64.121840 A 15.175659,15.175659 0 0,0 67.683668,-77.368854 A 28.856010,28.856010 0 0,0 59.118168,-79.302767 A 21.405031,21.405031 0 0,0 51.599553,-78.485415 A 15.926387,15.926387 0 0,0 41.076593,-68.517949 A 38.222134,38.222134 0 0,0 39.127705,-58.170718 "/>
        <path style="fill:none;stroke-width:0.280000;stroke-linecap:round;stroke-linejoin:round;stroke-opacity:1;stroke:#000000;" d="M 62.847805,-62.009522 A 4.366162,4.366162 0 0,0 66.384406,-69.116943 A 4.300094,4.300094 0 0,0 58.784781,-67.039678 A 4.500833,4.500833 0 0,0 59.736548,-63.557661 A 4.171430,4.171430 0 0,0 62.847805,-62.009522 "/>
    </g>
</svg>
