<?xml version="1.0" encoding="UTF-8"?>
<!-- Created by Vectric (http://www.vectric.com/) -->
<svg width="80.00000000mm" height="80.00000000mm" viewBox="0.00000000 -80.00000000 80.00000000 80.00000000" id="svg2" version="1.1" xmlns="http://www.w3.org/2000/svg" xmlns:xlink="http://www.w3.org/1999/xlink" xmlns:inkscape="http://www.inkscape.org/namespaces/inkscape">
    <g inkscape:groupmode="layer" id="6935a3f8-5b39-42a6-b33f-289d196bf070" inkscape:label="Capa 1" style="stroke:#000000;">
        <path style="fill:none;stroke-width:0.280000;stroke-linecap:round;stroke-linejoin:round;stroke-opacity:1;stroke:#000000;" d="M 48.869604,-40.161643 A 24.334248,24.334248 0 0,0 58.938840,-43.548368 A 4.619338,4.619338 0 0,1 61.511651,-44.212909 A 22.722258,22.722258 0 0,0 73.170745,-46.912229 A 9.803172,9.803172 0 0,0 75.271554,-62.653474 A 14.382665,14.382665 0 0,0 74.460570,-63.367319 A 3.965862,3.965862 0 0,0 73.996415,-63.693542 A 23.990313,23.990313 0 0,0 69.977558,-65.624831 A 11.880509,11.880509 0 0,0 68.196866,-66.130943 A 6.427283,6.427283 0 0,0 65.412085,-66.321873 A 6.318374,6.318374 0 0,1 61.970938,-66.422339 A 4.428177,4.428177 0 0,1 59.903650,-68.342265 A 19.303783,19.303783 0 0,0 56.385923,-71.199911 A 7.728867,7.728867 0 0,0 53.720577,-72.258197 A 21.968761,21.968761 0 0,0 48.965416,-72.651632 A 2.354635,2.354635 0 0,1 46.761362,-74.028133 A 6.804814,6.804814 0 0,0 43.816867,-77.184166 A 18.191029,18.191029 0 0,0 32.572378,-79.206017 A 13.799742,13.799742 0 0,0 26.964575,-77.092671 A 10.791873,10.791873 0 0,0 23.377654,-73.191424 A 1.676849,1.676849 0 0,1 21.640755,-72.332217 A 7.048518,7.048518 0 0,0 14.581355,-69.133486 A 13.327682,13.327682 0 0,0 13.045978,-65.715752 A 1.754922,1.754922 0 0,1 11.445064,-64.449883 A 12.275994,12.275994 0 0,0 4.160528,-61.601614 A 8.152896,8.152896 0 0,0 3.461460,-49.757256 A 11.227382,11.227382 0 0,0 14.055405,-46.496504 A 3.258089,3.258089 0 0,1 16.760179,-45.886377 A 38.395359,38.395359 0 0,0 19.877805,-43.699146 A 10.017187,10.017187 0 0,0 24.361545,-42.194145 A 10.749385,10.749385 0 0,0 28.846798,-42.763980 A 6.048520,6.048520 0 0,1 33.363568,-42.561514 A 28.063694,28.063694 0 0,0 40.715251,-40.362075 A 31.709044,31.709044 0 0,0 48.869604,-40.161643 "/>
    </g>
</svg>
